<?xml version="1.0" encoding="UTF-8" standalone="no"?><!DOCTYPE svg PUBLIC "-//W3C//DTD SVG 1.1//EN" "http://www.w3.org/Graphics/SVG/1.1/DTD/svg11.dtd"><svg width="100%" height="100%" viewBox="0 0 588 228" version="1.1" xmlns="http://www.w3.org/2000/svg" xmlns:xlink="http://www.w3.org/1999/xlink" xml:space="preserve" xmlns:serif="http://www.serif.com/" style="fill-rule:evenodd;clip-rule:evenodd;stroke-linejoin:round;stroke-miterlimit:1.41421;"><g><path d="M192.532,51.958l-29.322,113.316c-0.82,3.166 -3.127,4.526 -6.293,3.707l-17.166,-4.441c-3.164,-0.82 -4.523,-3.129 -3.705,-6.295l14.144,-54.658l-39.203,45.685c-1.517,1.741 -3.275,2.352 -5.609,1.748l-7.833,-2.025c-2.334,-0.604 -3.574,-1.992 -4.056,-4.252l-12.123,-58.964l-14.143,54.657c-0.82,3.168 -3.128,4.526 -6.462,3.661l-16.831,-4.354c-3.166,-0.82 -4.523,-3.127 -3.704,-6.293l29.323,-113.316c0.819,-3.168 3.127,-4.527 6.293,-3.707l13.164,3.406c2.666,0.69 4.366,2.375 5.053,5.219l17.45,86.482l57.205,-67.162c1.814,-2.197 4.115,-2.845 6.949,-2.113l13.166,3.406c3.164,0.821 4.524,3.127 3.703,6.293Z" style="fill:#fff;fill-rule:nonzero;"/><path d="M222.323,130.237c0,20.483 16.182,37.008 36.664,37.008c19.969,0 37.01,-16.867 37.01,-37.008c0,-20.14 -17.041,-37.007 -37.01,-37.007c-20.482,0 -36.664,16.523 -36.664,37.007Zm101.559,0c0,35.803 -28.918,64.723 -64.721,64.723c-35.631,0 -64.723,-28.92 -64.723,-64.723c0,-35.803 29.092,-64.722 64.723,-64.722c35.803,0 64.721,28.919 64.721,64.722Z" style="fill:#fff;fill-rule:nonzero;"/><path d="M411,20.701l-12.781,124.258c-0.289,3.09 -2,4.762 -4.836,5.474l-11.02,2.77c-2.838,0.713 -5.134,0.049 -6.849,-2.537l-70.02,-103.445c-2.051,-3.213 -1.096,-5.761 2.58,-6.684l18.53,-4.659c2.837,-0.712 4.968,-0.005 6.683,2.581l41.871,63.488l7.043,-75.783c0.287,-3.09 1.83,-4.72 4.666,-5.433l18.699,-4.7c3.672,-0.923 5.719,0.87 5.434,4.67Z" style="fill:#fff;fill-rule:nonzero;"/><path d="M510.134,164.486l2.09,17.43c0.388,3.248 -1.266,5.353 -4.512,5.742l-62.553,7.5c-3.248,0.389 -5.353,-1.267 -5.742,-4.514l-13.932,-116.217c-0.39,-3.248 1.266,-5.352 4.512,-5.742l62.553,-7.499c3.248,-0.389 5.351,1.266 5.742,4.514l2.09,17.431c0.39,3.248 -1.266,5.354 -4.512,5.742l-39.994,4.794l2.807,23.414l36.746,-4.404c3.418,-0.41 5.523,1.245 5.912,4.493l1.68,14.015c0.39,3.247 -1.264,5.351 -4.682,5.76l-36.746,4.405l2.806,23.414l39.993,-4.793c3.248,-0.389 5.353,1.265 5.742,4.515Z" style="fill:#fff;fill-rule:nonzero;"/><path d="M413.431,205.416c0.926,-0.533 1.599,-1.416 1.868,-2.45c0.269,-1.034 0.11,-2.134 -0.44,-3.05l-9.711,-16.181c-1.408,-2.346 -4.389,-3.211 -6.832,-1.977c-0.701,0.354 -1.359,0.668 -1.858,0.867c-14.755,5.919 -32.269,1.502 -42.456,-10.632c-0.249,-0.296 -0.555,-0.696 -0.88,-1.143c-1.569,-2.152 -4.519,-2.732 -6.79,-1.34l-15.169,9.302c-1.161,0.712 -1.976,1.871 -2.256,3.204c-0.279,1.334 0.001,2.725 0.78,3.842c0.014,0.021 0.027,0.04 0.041,0.059c18.857,26.722 54.759,35.169 83.584,19.565c0.037,-0.02 0.077,-0.042 0.119,-0.066Z" style="fill:#fff;fill-rule:nonzero;"/><path d="M513.748,33.378l20.867,34.452l-10.335,6.26c-1.272,0.77 -2.186,2.015 -2.541,3.46c-0.353,1.445 -0.119,2.971 0.654,4.243l8.876,14.623c1.482,2.441 4.661,3.22 7.104,1.741l30.123,-18.245c2.797,-1.693 3.438,-4.294 1.742,-7.091l-32.636,-53.889c-1.694,-2.797 -4.293,-3.436 -7.094,-1.742l-15.016,9.096c-2.799,1.693 -3.44,4.296 -1.744,7.092Z" style="fill:#fff;fill-rule:nonzero;"/><path d="M138.746,227.622c-3.932,1.36 -6.285,-1.187 -7.282,-3.936l-5.737,-15.433c-1.116,-3.074 0.021,-5.5 3.094,-6.614l55.218,-19.627c3.073,-1.112 5.502,0.022 6.617,3.094l6.039,16.67c1.11,3.076 -0.023,5.501 -3.099,6.615c0,0 -52.966,18.581 -54.85,19.231Z" style="fill:#fff;fill-rule:nonzero;"/><path d="M71.754,213.558l17.266,-4.593c1.114,-0.296 2.065,-1.048 2.611,-2.062c0.551,-1.014 0.66,-2.222 0.297,-3.314c-5.326,-15.835 -16.401,-28.741 -31.206,-36.406c-0.918,-0.476 -1.977,-0.6 -2.984,-0.35l0.001,0c-0.134,0.031 -0.268,0.071 -0.4,0.119c-1.11,0.393 -2.014,1.235 -2.484,2.31l-7.174,16.463c-0.886,2.03 -0.044,4.435 1.917,5.474c7.397,3.92 12.937,10.039 16.469,18.189c0.161,0.373 0.343,0.857 0.536,1.397c0.746,2.126 2.961,3.316 5.151,2.773Z" style="fill:#fff;fill-rule:nonzero;"/><path d="M485.439,22.384l-0.47,-17.86c-0.03,-1.153 -0.539,-2.252 -1.398,-3.018c-0.861,-0.771 -2.01,-1.156 -3.156,-1.057c-16.638,1.512 -31.761,9.296 -42.647,21.92c-0.676,0.783 -1.042,1.785 -1.033,2.821l-0.001,0c0.001,0.137 0.01,0.277 0.025,0.416c0.126,1.172 0.734,2.247 1.672,2.952l14.352,10.794c1.772,1.331 4.306,1.07 5.77,-0.597c5.525,-6.287 12.763,-10.258 21.51,-11.806c0.399,-0.069 0.915,-0.135 1.482,-0.196c2.242,-0.235 3.914,-2.113 3.894,-4.369Z" style="fill:#fff;fill-rule:nonzero;"/><path d="M261.454,35.413c3.015,-1.114 5.011,-3.994 4.997,-7.209l-0.074,-16.356c-0.007,-1.542 -0.762,-2.984 -2.024,-3.868c-1.263,-0.883 -2.877,-1.1 -4.326,-0.579l-36.263,13.015c-2.839,1.015 -4.004,2.861 -3.99,5.704l0.073,18.57c0.014,3.681 2.194,5.179 5.705,3.99l35.902,-13.267Z" style="fill:#fff;fill-rule:nonzero;"/><path d="M119.097,24.406c-2.03,2.496 -2.281,5.996 -0.628,8.756l8.417,14.05c0.79,1.32 2.171,2.175 3.704,2.294c1.534,0.119 3.03,-0.512 4.014,-1.694l18.234,-21.878c1.924,-2.321 1.985,-4.501 0.522,-6.942l-9.534,-15.936c-1.889,-3.159 -4.527,-3.335 -6.939,-0.521l-17.79,21.871Z" style="fill:#fff;fill-rule:nonzero;"/><path d="M573.022,178.139c1.064,-0.747 1.785,-1.888 2.003,-3.169c0.218,-1.282 -0.086,-2.597 -0.842,-3.655l-9.652,-13.47l17.087,0.762c2.505,0.112 4.628,-1.826 4.744,-4.332l0.714,-15.399c0.057,-1.216 -0.374,-2.403 -1.196,-3.301c-0.822,-0.897 -1.968,-1.429 -3.184,-1.479l-46.2,-1.891c-2.314,-0.077 -3.973,0.798 -5.129,2.929l-3.873,7.15c-1.16,2.129 -0.99,3.99 0.34,5.899l26.204,36.857c1.687,2.371 4.972,2.936 7.354,1.265l11.63,-8.166Z" style="fill:#fff;fill-rule:nonzero;"/><path d="M37.33,72.264c1.962,-1.921 1.998,-5.068 0.08,-7.033l-15.762,-16.154c-2.282,-2.34 -4.959,-2.374 -7.303,-0.09l-12.564,12.262c-2.341,2.283 -2.376,4.963 -0.093,7.302l15.737,16.128c0.936,0.959 2.215,1.506 3.555,1.522c1.339,0.015 2.63,-0.503 3.588,-1.441l12.762,-12.496Z" style="fill:#fff;fill-rule:nonzero;"/></g></svg>