<?xml version="1.0" encoding="UTF-8" standalone="no"?><!DOCTYPE svg PUBLIC "-//W3C//DTD SVG 1.1//EN" "http://www.w3.org/Graphics/SVG/1.1/DTD/svg11.dtd"><svg width="100%" height="100%" viewBox="0 0 588 389" version="1.1" xmlns="http://www.w3.org/2000/svg" xmlns:xlink="http://www.w3.org/1999/xlink" xml:space="preserve" xmlns:serif="http://www.serif.com/" style="fill-rule:evenodd;clip-rule:evenodd;stroke-linejoin:round;stroke-miterlimit:1.41421;"><g><path d="M192.532,51.951l-29.322,113.316c-0.82,3.166 -3.127,4.526 -6.293,3.707l-17.166,-4.441c-3.164,-0.82 -4.523,-3.129 -3.705,-6.295l14.144,-54.658l-39.203,45.685c-1.517,1.741 -3.275,2.352 -5.609,1.748l-7.833,-2.025c-2.334,-0.604 -3.574,-1.992 -4.056,-4.252l-12.123,-58.964l-14.143,54.657c-0.82,3.168 -3.128,4.526 -6.462,3.661l-16.831,-4.354c-3.166,-0.82 -4.523,-3.127 -3.704,-6.293l29.323,-113.316c0.819,-3.168 3.127,-4.527 6.293,-3.707l13.164,3.406c2.666,0.69 4.366,2.375 5.053,5.219l17.45,86.482l57.205,-67.162c1.814,-2.197 4.115,-2.845 6.949,-2.113l13.166,3.406c3.164,0.821 4.524,3.127 3.703,6.293Z" style="fill:#242c33;fill-rule:nonzero;"/><path d="M222.323,130.23c0,20.483 16.182,37.008 36.664,37.008c19.969,0 37.01,-16.867 37.01,-37.008c0,-20.14 -17.041,-37.007 -37.01,-37.007c-20.482,0 -36.664,16.523 -36.664,37.007Zm101.559,0c0,35.803 -28.918,64.723 -64.721,64.723c-35.631,0 -64.723,-28.92 -64.723,-64.723c0,-35.803 29.092,-64.722 64.723,-64.722c35.803,0 64.721,28.919 64.721,64.722Z" style="fill:#242c33;fill-rule:nonzero;"/><path d="M411,20.694l-12.781,124.258c-0.289,3.09 -2,4.762 -4.836,5.474l-11.02,2.77c-2.838,0.713 -5.134,0.049 -6.849,-2.537l-70.02,-103.445c-2.051,-3.213 -1.096,-5.761 2.58,-6.684l18.53,-4.659c2.837,-0.712 4.968,-0.005 6.683,2.581l41.871,63.488l7.043,-75.783c0.287,-3.09 1.83,-4.72 4.666,-5.433l18.699,-4.7c3.672,-0.923 5.719,0.87 5.434,4.67Z" style="fill:#242c33;fill-rule:nonzero;"/><path d="M510.134,164.479l2.09,17.43c0.388,3.248 -1.266,5.353 -4.512,5.742l-62.553,7.5c-3.248,0.389 -5.353,-1.267 -5.742,-4.514l-13.932,-116.217c-0.39,-3.248 1.266,-5.352 4.512,-5.742l62.553,-7.499c3.248,-0.389 5.351,1.266 5.742,4.514l2.09,17.431c0.39,3.248 -1.266,5.354 -4.512,5.742l-39.994,4.794l2.807,23.414l36.746,-4.404c3.418,-0.41 5.523,1.245 5.912,4.493l1.68,14.014c0.39,3.248 -1.264,5.352 -4.682,5.761l-36.746,4.405l2.806,23.414l39.993,-4.793c3.248,-0.389 5.353,1.265 5.742,4.515Z" style="fill:#242c33;fill-rule:nonzero;"/><path d="M179.935,388.116c0.8,0.661 1.832,0.971 2.863,0.864c1.032,-0.109 1.977,-0.626 2.623,-1.438l11.43,-14.342c1.657,-2.08 1.431,-5.087 -0.522,-6.891c-0.561,-0.519 -1.072,-1.013 -1.423,-1.4c-10.405,-11.42 -12.335,-28.866 -4.751,-42.266c0.184,-0.327 0.445,-0.74 0.741,-1.189c1.426,-2.159 0.951,-5.042 -1.088,-6.635l-13.625,-10.65c-1.044,-0.816 -2.378,-1.164 -3.687,-0.965c-1.31,0.201 -2.482,0.93 -3.234,2.021c-0.012,0.018 -0.025,0.036 -0.037,0.054c-17.916,26.251 -13.402,61.808 10.601,82.746c0.033,0.029 0.07,0.059 0.109,0.091Z" style="fill:#ee3d54;fill-rule:nonzero;"/><path d="M170.981,216.409l-4.625,2.282l4.249,8.614l4.624,-2.279c2.408,-1.188 3.466,-3.993 2.217,-6.527c-1.155,-2.344 -4.055,-3.277 -6.465,-2.09Z" style="fill:#ee3d54;fill-rule:nonzero;"/><path d="M204.875,245.218l-7.415,3.653c-1.074,0.533 -2.022,0.526 -2.999,-0.174l-17.401,-11.815l-1.394,0.685l7.808,15.84c0.593,1.202 0.24,2.243 -1.027,2.869l-6.399,3.153c-1.203,0.596 -2.243,0.241 -2.838,-0.962l-21.239,-43.08c-0.594,-1.203 -0.24,-2.245 0.964,-2.839l12.986,-6.402c8.048,-3.967 17.79,-0.659 21.726,7.323c2.717,5.511 2.051,11.825 -1.231,16.512l18.664,12.3c1.448,0.859 1.377,2.156 -0.205,2.937Zm-53.215,26.711c-8.614,4.245 -19.113,0.682 -23.362,-7.937l-14.65,-29.709c-0.594,-1.205 -0.24,-2.244 0.964,-2.839l6.335,-3.122c1.267,-0.625 2.307,-0.273 2.902,0.931l14.649,29.71c1.467,2.98 5.062,4.2 8.102,2.7c3.04,-1.5 4.325,-5.124 2.857,-8.1l-14.648,-29.713c-0.594,-1.204 -0.242,-2.243 0.963,-2.838l6.334,-3.123c1.205,-0.594 2.309,-0.272 2.902,0.932l14.651,29.711c4.248,8.617 0.617,19.148 -7.999,23.397Zm-44.79,22.078c-13.115,6.47 -29.068,1.106 -35.564,-12.072c-6.498,-13.177 -1.039,-29.1 12.074,-35.565c13.178,-6.498 29.069,-1.1 35.566,12.076c6.498,13.178 1.102,29.069 -12.076,35.561Zm-38.456,18.493l-6.4,3.154c-1.202,0.593 -2.244,0.24 -2.837,-0.963l-9.278,-18.818l-25.585,-17.073c-1.384,-0.893 -1.314,-2.186 0.207,-2.936l8.171,-4.031c1.013,-0.499 1.993,-0.43 2.937,0.207l13.467,9.425l0.724,-16.424c0.07,-1.136 0.611,-1.952 1.625,-2.452l8.236,-4.061c1.52,-0.748 2.59,-0.017 2.454,1.625l-2.035,30.69l9.277,18.816c0.593,1.205 0.241,2.246 -0.963,2.841Zm155.946,-69.693l-29.06,-58.942c-1.731,-3.51 -5.981,-4.954 -9.491,-3.223l-177.073,87.04c-3.51,1.732 -4.954,5.98 -3.223,9.491l29.06,58.939c1.729,3.508 5.981,4.957 9.492,3.224l177.071,-87.038c3.511,-1.733 4.953,-5.984 3.224,-9.491Z" style="fill:#ee3d54;fill-rule:nonzero;"/><path d="M88.347,256.601c-7.539,3.717 -10.497,12.734 -6.779,20.273c3.717,7.539 12.671,10.686 20.209,6.968c7.35,-3.623 10.561,-12.924 6.907,-20.337c-3.656,-7.413 -12.989,-10.529 -20.337,-6.904Z" style="fill:#ee3d54;fill-rule:nonzero;"/><path d="M431.861,246.238l-5.591,1.513l7.673,28.36l5.592,-1.512c7.774,-2.1 12.399,-10.158 10.276,-18c-2.12,-7.84 -10.174,-12.465 -17.95,-10.361Z" style="fill:#ee3d54;fill-rule:nonzero;"/><path d="M357.951,266.232l-4.976,1.345l2.507,9.278l4.977,-1.35c2.592,-0.703 4.174,-3.25 3.432,-5.976c-0.68,-2.526 -3.348,-3.997 -5.94,-3.297Z" style="fill:#ee3d54;fill-rule:nonzero;"/><path d="M310.366,278.595c-8.114,2.195 -12.752,10.473 -10.557,18.588c2.199,8.113 10.378,12.922 18.489,10.728c7.911,-2.138 12.85,-10.648 10.694,-18.625c-2.156,-7.978 -10.716,-12.834 -18.626,-10.691Z" style="fill:#ee3d54;fill-rule:nonzero;"/><path d="M442.523,285.644l-14.593,3.949c-1.297,0.35 -2.246,-0.197 -2.594,-1.494l-12.545,-46.361c-0.353,-1.297 0.195,-2.252 1.492,-2.6l14.588,-3.949c13.912,-3.762 28.291,4.494 32.053,18.404c3.765,13.908 -4.49,28.289 -18.401,32.051Zm-23.726,6.424l-23.865,6.453c-1.293,0.351 -2.248,-0.196 -2.596,-1.491l-12.549,-46.365c-0.349,-1.295 0.197,-2.25 1.494,-2.599l6.883,-1.864c1.367,-0.369 2.316,0.178 2.672,1.475l10.107,37.363l14.866,-4.021c1.293,-0.35 2.242,0.197 2.595,1.492l1.885,6.955c0.348,1.297 -0.197,2.248 -1.492,2.602Zm-33.137,8.961l-7.976,2.158c-1.163,0.314 -2.09,0.129 -2.913,-0.75l-14.798,-14.948l-1.502,0.409l4.611,17.047c0.352,1.293 -0.197,2.246 -1.561,2.615l-6.884,1.861c-1.297,0.354 -2.25,-0.195 -2.6,-1.488l-12.543,-46.366c-0.348,-1.294 0.197,-2.246 1.488,-2.599l13.985,-3.781c8.656,-2.344 17.58,2.78 19.904,11.369c1.604,5.933 -0.266,12 -4.389,15.969l15.946,15.662c1.254,1.125 0.933,2.383 -0.768,2.842Zm-64.321,17.843c-14.118,3.817 -28.738,-4.521 -32.575,-18.703c-3.838,-14.181 4.589,-28.756 18.703,-32.57c14.178,-3.84 28.734,4.517 32.572,18.699c3.838,14.184 -4.519,28.734 -18.7,32.574Zm-39.035,8.291c-0.01,1.321 -0.628,1.996 -1.858,2.328l-5.387,1.461c-1.225,0.33 -2.209,-0.058 -2.797,-1.148l-12.956,-22.469l0.275,25.899c-0.028,1.254 -0.679,2.089 -1.907,2.421l-5.386,1.456c-1.159,0.316 -2.039,0.041 -2.711,-1.096l-25.584,-42.908c-0.779,-1.254 -0.287,-2.41 1.143,-2.797l7.98,-2.158c1.158,-0.317 2.039,-0.039 2.713,1.095l13.611,22.733l-0.203,-25.629c-0.003,-1.098 0.568,-1.69 1.593,-1.967l4.362,-1.182c1.023,-0.277 1.749,-0.033 2.296,0.916l12.817,22.217l0.158,-26.459c0.01,-1.318 0.631,-2 1.858,-2.332l7.976,-2.156c1.5,-0.406 2.509,0.346 2.468,1.818l-0.461,49.957Zm202.202,-46.73l-17.164,-63.432c-1.022,-3.781 -4.912,-6.017 -8.692,-4.992l-248.171,67.377c-3.781,1.019 -6.014,4.912 -4.992,8.689l17.162,63.434c1.023,3.779 4.914,6.014 8.693,4.992l248.168,-67.375c3.781,-1.021 6.015,-4.916 4.996,-8.693Z" style="fill:#ee3d54;fill-rule:nonzero;"/><path d="M274.643,209.876c-2.963,-1.253 -6.394,-0.517 -8.584,1.84l-11.78,12.687c-0.901,0.969 -1.276,2.315 -1.006,3.611c0.269,1.296 1.15,2.38 2.363,2.91l26.95,11.781c2.766,1.201 4.877,0.652 6.813,-1.434l12.643,-13.601c2.507,-2.695 1.941,-5.278 -1.434,-6.81l-25.965,-10.984Z" style="fill:#ee3d54;fill-rule:nonzero;"/><path d="M413.431,205.409c0.926,-0.533 1.599,-1.416 1.869,-2.45c0.268,-1.034 0.109,-2.133 -0.441,-3.05l-9.711,-16.18c-1.408,-2.346 -4.389,-3.212 -6.832,-1.978c-0.701,0.355 -1.359,0.668 -1.858,0.867c-14.755,5.919 -32.269,1.502 -42.456,-10.631c-0.249,-0.296 -0.555,-0.697 -0.88,-1.144c-1.569,-2.152 -4.519,-2.732 -6.79,-1.339l-15.169,9.302c-1.161,0.712 -1.976,1.871 -2.256,3.204c-0.279,1.333 0.001,2.726 0.781,3.843c0.013,0.02 0.027,0.039 0.04,0.057c18.857,26.722 54.759,35.169 83.584,19.566c0.037,-0.021 0.077,-0.043 0.119,-0.067Z" style="fill:#ee3d54;fill-rule:nonzero;"/><path d="M513.748,33.371l20.867,34.452l-10.335,6.26c-1.272,0.77 -2.186,2.015 -2.541,3.46c-0.353,1.445 -0.119,2.971 0.654,4.243l8.876,14.623c1.482,2.441 4.661,3.22 7.104,1.741l30.123,-18.245c2.797,-1.693 3.438,-4.294 1.742,-7.091l-32.636,-53.889c-1.694,-2.797 -4.293,-3.436 -7.094,-1.742l-15.016,9.096c-2.799,1.693 -3.44,4.296 -1.744,7.092Z" style="fill:#ee3d54;fill-rule:nonzero;"/><path d="M485.439,22.377l-0.47,-17.86c-0.03,-1.153 -0.539,-2.252 -1.398,-3.018c-0.861,-0.771 -2.01,-1.157 -3.156,-1.057c-16.638,1.512 -31.761,9.296 -42.647,21.92c-0.676,0.783 -1.042,1.785 -1.033,2.821l-0.001,0c0.001,0.137 0.01,0.277 0.025,0.416c0.126,1.172 0.734,2.247 1.672,2.952l14.352,10.794c1.772,1.331 4.306,1.07 5.77,-0.597c5.525,-6.287 12.763,-10.258 21.51,-11.806c0.399,-0.069 0.915,-0.135 1.482,-0.196c2.242,-0.235 3.914,-2.113 3.894,-4.369Z" style="fill:#ee3d54;fill-rule:nonzero;"/><path d="M261.453,35.406c3.015,-1.114 5.012,-3.995 4.997,-7.209l-0.074,-16.356c-0.007,-1.542 -0.762,-2.984 -2.024,-3.868c-1.263,-0.883 -2.876,-1.1 -4.326,-0.579l-36.262,13.015c-2.84,1.015 -4.004,2.861 -3.991,5.704l0.073,18.57c0.014,3.681 2.194,5.179 5.706,3.99l35.901,-13.267Z" style="fill:#ee3d54;fill-rule:nonzero;"/><path d="M119.097,24.399c-2.03,2.496 -2.281,5.996 -0.628,8.756l8.417,14.05c0.79,1.32 2.171,2.175 3.704,2.294c1.534,0.119 3.03,-0.512 4.014,-1.694l18.234,-21.878c1.924,-2.321 1.985,-4.501 0.521,-6.942l-9.533,-15.936c-1.889,-3.159 -4.527,-3.335 -6.939,-0.521l-17.79,21.871Z" style="fill:#ee3d54;fill-rule:nonzero;"/><path d="M573.022,178.132c1.064,-0.747 1.785,-1.888 2.003,-3.169c0.218,-1.282 -0.086,-2.598 -0.842,-3.654l-9.652,-13.471l17.087,0.762c2.505,0.112 4.628,-1.826 4.744,-4.332l0.714,-15.399c0.057,-1.216 -0.374,-2.403 -1.196,-3.301c-0.822,-0.897 -1.968,-1.429 -3.184,-1.479l-46.2,-1.891c-2.314,-0.077 -3.973,0.798 -5.129,2.929l-3.873,7.15c-1.16,2.129 -0.99,3.99 0.34,5.899l26.204,36.856c1.687,2.373 4.972,2.937 7.354,1.265l11.63,-8.165Z" style="fill:#ee3d54;fill-rule:nonzero;"/><path d="M37.33,72.257c1.962,-1.921 1.998,-5.068 0.08,-7.033l-15.762,-16.154c-2.282,-2.34 -4.959,-2.374 -7.303,-0.09l-12.564,12.262c-2.341,2.283 -2.376,4.963 -0.093,7.302l15.737,16.128c0.936,0.959 2.215,1.506 3.555,1.522c1.339,0.015 2.63,-0.503 3.588,-1.441l12.762,-12.496Z" style="fill:#ee3d54;fill-rule:nonzero;"/><path d="M37.586,213.459c-4.029,1.032 -6.165,-1.699 -6.934,-4.52l-4.449,-15.853c-0.859,-3.156 0.473,-5.48 3.628,-6.338l56.644,-15.023c3.153,-0.855 5.481,0.474 6.339,3.628l4.65,17.11c0.852,3.157 -0.476,5.48 -3.632,6.338c0,0 -54.314,14.165 -56.246,14.658Z" style="fill:#ee3d54;fill-rule:nonzero;"/></g></svg>