<?xml version="1.0" encoding="UTF-8" standalone="no"?><!DOCTYPE svg PUBLIC "-//W3C//DTD SVG 1.1//EN" "http://www.w3.org/Graphics/SVG/1.1/DTD/svg11.dtd"><svg width="100%" height="100%" viewBox="0 0 604 148" version="1.1" xmlns="http://www.w3.org/2000/svg" xmlns:xlink="http://www.w3.org/1999/xlink" xml:space="preserve" xmlns:serif="http://www.serif.com/" style="fill-rule:evenodd;clip-rule:evenodd;stroke-linejoin:round;stroke-miterlimit:1.41421;"><rect id="Page-1" serif:id="Page 1" x="0" y="0" width="603.931" height="147.161" style="fill:none;"/><path d="M387.866,40.441l-8.382,32.391c-0.234,0.905 -0.893,1.294 -1.798,1.06l-4.907,-1.27c-0.905,-0.234 -1.293,-0.894 -1.059,-1.799l4.043,-15.624l-11.206,13.059c-0.434,0.498 -0.936,0.672 -1.604,0.5l-2.238,-0.579c-0.668,-0.173 -1.022,-0.57 -1.16,-1.216l-3.465,-16.855l-4.043,15.624c-0.235,0.906 -0.894,1.294 -1.847,1.047l-4.811,-1.245c-0.905,-0.234 -1.293,-0.894 -1.059,-1.799l8.382,-32.391c0.234,-0.905 0.894,-1.294 1.799,-1.059l3.763,0.973c0.762,0.197 1.247,0.679 1.444,1.492l4.988,24.721l16.352,-19.198c0.518,-0.628 1.176,-0.814 1.986,-0.604l3.763,0.973c0.905,0.235 1.293,0.894 1.059,1.799" style="fill:#2d3035;fill-rule:nonzero;"/><path d="M396.382,62.816c0,5.855 4.626,10.579 10.48,10.579c5.708,0 10.579,-4.822 10.579,-10.579c0,-5.757 -4.871,-10.579 -10.579,-10.579c-5.854,0 -10.48,4.724 -10.48,10.579m29.03,0c0,10.234 -8.266,18.501 -18.5,18.501c-10.185,0 -18.501,-8.267 -18.501,-18.501c0,-10.234 8.316,-18.501 18.501,-18.501c10.234,0 18.5,8.267 18.5,18.501" style="fill:#2d3035;fill-rule:nonzero;"/><path d="M450.315,31.506l-3.653,35.519c-0.083,0.883 -0.572,1.361 -1.383,1.565l-3.15,0.791c-0.811,0.204 -1.467,0.015 -1.958,-0.725l-20.015,-29.569c-0.586,-0.918 -0.313,-1.647 0.738,-1.911l5.297,-1.331c0.811,-0.204 1.42,-0.002 1.91,0.737l11.969,18.148l2.013,-21.662c0.082,-0.884 0.523,-1.35 1.334,-1.553l5.345,-1.344c1.049,-0.264 1.634,0.249 1.553,1.335" style="fill:#2d3035;fill-rule:nonzero;"/><path d="M478.652,72.606l0.597,4.982c0.112,0.929 -0.361,1.53 -1.289,1.642l-17.881,2.144c-0.928,0.111 -1.53,-0.363 -1.641,-1.291l-3.982,-33.22c-0.112,-0.929 0.361,-1.53 1.289,-1.642l17.881,-2.143c0.928,-0.111 1.53,0.362 1.641,1.29l0.597,4.983c0.112,0.928 -0.361,1.53 -1.289,1.641l-11.432,1.371l0.802,6.692l10.504,-1.259c0.977,-0.117 1.578,0.356 1.69,1.285l0.48,4.006c0.111,0.928 -0.362,1.53 -1.339,1.647l-10.503,1.258l0.802,6.693l11.432,-1.37c0.928,-0.111 1.53,0.362 1.641,1.291" style="fill:#2d3035;fill-rule:nonzero;"/><path d="M384.265,136.532c0.229,0.189 0.524,0.278 0.819,0.247c0.295,-0.031 0.564,-0.179 0.749,-0.411l3.268,-4.1c0.473,-0.594 0.409,-1.454 -0.15,-1.97c-0.16,-0.148 -0.306,-0.289 -0.407,-0.4c-2.974,-3.264 -3.526,-8.251 -1.358,-12.082c0.053,-0.093 0.128,-0.211 0.212,-0.339c0.408,-0.617 0.272,-1.441 -0.311,-1.897l-3.895,-3.044c-0.298,-0.233 -0.679,-0.333 -1.053,-0.276c-0.375,0.057 -0.71,0.266 -0.925,0.578c-0.003,0.005 -0.007,0.01 -0.01,0.015c-5.121,7.504 -3.831,17.668 3.03,23.653c0.009,0.008 0.02,0.017 0.031,0.026" style="fill:#e63149;fill-rule:nonzero;"/><path d="M381.706,87.451l-1.322,0.652l1.215,2.463l1.321,-0.652c0.688,-0.339 0.991,-1.141 0.634,-1.866c-0.33,-0.67 -1.159,-0.936 -1.848,-0.597" style="fill:#e63149;fill-rule:nonzero;"/><path d="M391.394,95.685l-2.12,1.044c-0.307,0.153 -0.578,0.151 -0.857,-0.05l-4.974,-3.377l-0.398,0.196l2.232,4.528c0.169,0.343 0.068,0.641 -0.294,0.82l-1.829,0.901c-0.344,0.171 -0.641,0.069 -0.811,-0.275l-6.071,-12.314c-0.17,-0.344 -0.069,-0.642 0.275,-0.812l3.712,-1.83c2.301,-1.134 5.085,-0.188 6.21,2.094c0.777,1.575 0.587,3.38 -0.351,4.72l5.335,3.515c0.414,0.246 0.393,0.617 -0.059,0.84m-15.211,7.635c-2.463,1.214 -5.464,0.195 -6.678,-2.269l-4.188,-8.492c-0.17,-0.344 -0.069,-0.641 0.276,-0.811l1.81,-0.893c0.363,-0.178 0.66,-0.078 0.83,0.266l4.187,8.493c0.42,0.852 1.447,1.201 2.316,0.772c0.869,-0.429 1.237,-1.465 0.817,-2.316l-4.187,-8.493c-0.17,-0.344 -0.069,-0.641 0.275,-0.811l1.811,-0.893c0.344,-0.17 0.661,-0.078 0.829,0.267l4.188,8.492c1.214,2.463 0.178,5.474 -2.286,6.688m-12.803,6.311c-3.748,1.85 -8.308,0.316 -10.166,-3.451c-1.858,-3.766 -0.296,-8.318 3.452,-10.166c3.767,-1.857 8.308,-0.314 10.166,3.452c1.858,3.767 0.315,8.309 -3.452,10.165m-10.993,5.286l-1.828,0.902c-0.345,0.169 -0.642,0.068 -0.812,-0.275l-2.651,-5.379l-7.313,-4.881c-0.397,-0.255 -0.377,-0.625 0.058,-0.839l2.335,-1.152c0.291,-0.143 0.571,-0.123 0.841,0.059l3.849,2.694l0.207,-4.695c0.02,-0.324 0.175,-0.558 0.465,-0.701l2.354,-1.161c0.434,-0.213 0.74,-0.005 0.702,0.465l-0.582,8.773l2.651,5.378c0.17,0.345 0.07,0.642 -0.275,0.812m44.577,-19.921l-8.308,-16.849c-0.494,-1.003 -1.709,-1.416 -2.712,-0.921l-50.615,24.88c-1.004,0.495 -1.416,1.71 -0.922,2.713l8.307,16.848c0.494,1.002 1.71,1.417 2.713,0.921l50.615,-24.879c1.003,-0.496 1.416,-1.711 0.921,-2.713" style="fill:#e63149;fill-rule:nonzero;"/><path d="M358.086,98.939c-2.155,1.063 -3.001,3.64 -1.938,5.795c1.062,2.155 3.622,3.055 5.777,1.992c2.101,-1.036 3.019,-3.694 1.974,-5.813c-1.045,-2.119 -3.713,-3.01 -5.813,-1.974" style="fill:#e63149;fill-rule:nonzero;"/><path d="M456.278,95.977l-1.598,0.433l2.193,8.106l1.599,-0.432c2.221,-0.6 3.544,-2.904 2.937,-5.145c-0.606,-2.241 -2.909,-3.563 -5.131,-2.962" style="fill:#e63149;fill-rule:nonzero;"/><path d="M435.151,101.692l-1.423,0.385l0.717,2.652l1.423,-0.386c0.741,-0.201 1.193,-0.929 0.981,-1.709c-0.194,-0.722 -0.957,-1.142 -1.698,-0.942" style="fill:#e63149;fill-rule:nonzero;"/><path d="M421.549,105.226c-2.319,0.627 -3.645,2.994 -3.018,5.313c0.629,2.319 2.967,3.694 5.286,3.067c2.261,-0.611 3.673,-3.044 3.056,-5.324c-0.616,-2.281 -3.063,-3.669 -5.324,-3.056" style="fill:#e63149;fill-rule:nonzero;"/><path d="M459.325,107.241l-4.172,1.129c-0.37,0.1 -0.642,-0.057 -0.741,-0.427l-3.586,-13.252c-0.101,-0.371 0.056,-0.644 0.427,-0.744l4.17,-1.128c3.976,-1.076 8.087,1.284 9.162,5.26c1.076,3.976 -1.284,8.087 -5.26,9.162m-6.782,1.836l-6.822,1.845c-0.37,0.1 -0.643,-0.056 -0.742,-0.426l-3.587,-13.254c-0.1,-0.369 0.056,-0.643 0.427,-0.743l1.968,-0.532c0.39,-0.106 0.662,0.051 0.763,0.421l2.89,10.68l4.249,-1.149c0.369,-0.1 0.64,0.056 0.742,0.426l0.539,1.988c0.099,0.371 -0.057,0.643 -0.427,0.744m-9.472,2.562l-2.28,0.617c-0.332,0.089 -0.598,0.036 -0.833,-0.215l-4.23,-4.272l-0.429,0.116l1.318,4.873c0.1,0.37 -0.056,0.642 -0.446,0.748l-1.968,0.532c-0.371,0.101 -0.643,-0.056 -0.743,-0.426l-3.585,-13.254c-0.1,-0.369 0.056,-0.642 0.425,-0.742l3.997,-1.081c2.475,-0.67 5.025,0.794 5.69,3.25c0.458,1.696 -0.076,3.43 -1.255,4.564l4.558,4.477c0.359,0.322 0.267,0.682 -0.219,0.813m-18.386,5.1c-4.036,1.091 -8.215,-1.292 -9.311,-5.346c-1.098,-4.054 1.311,-8.22 5.346,-9.31c4.052,-1.098 8.213,1.291 9.31,5.345c1.097,4.054 -1.292,8.214 -5.345,9.311m-11.158,2.37c-0.003,0.378 -0.18,0.571 -0.531,0.666l-1.54,0.417c-0.35,0.095 -0.631,-0.016 -0.799,-0.328l-3.704,-6.423l0.078,7.403c-0.007,0.359 -0.194,0.598 -0.544,0.693l-1.54,0.416c-0.331,0.09 -0.583,0.011 -0.775,-0.314l-7.313,-12.265c-0.223,-0.358 -0.082,-0.689 0.327,-0.799l2.281,-0.617c0.331,-0.091 0.582,-0.011 0.775,0.313l3.891,6.498l-0.058,-7.326c-0.001,-0.314 0.162,-0.483 0.455,-0.562l1.247,-0.338c0.293,-0.079 0.5,-0.009 0.656,0.262l3.664,6.35l0.045,-7.563c0.003,-0.377 0.181,-0.571 0.531,-0.666l2.28,-0.617c0.429,-0.116 0.717,0.099 0.706,0.52l-0.132,14.28Zm57.798,-13.358l-4.906,-18.131c-0.292,-1.081 -1.404,-1.72 -2.484,-1.427l-70.939,19.259c-1.081,0.292 -1.719,1.404 -1.427,2.484l4.906,18.132c0.292,1.081 1.404,1.719 2.485,1.427l70.937,-19.259c1.081,-0.292 1.72,-1.405 1.428,-2.485" style="fill:#e63149;fill-rule:nonzero;"/><path d="M411.337,85.583c-0.847,-0.358 -1.828,-0.148 -2.454,0.526l-3.367,3.626c-0.258,0.277 -0.365,0.662 -0.288,1.033c0.077,0.37 0.329,0.68 0.676,0.831l7.703,3.368c0.791,0.343 1.395,0.186 1.948,-0.41l3.614,-3.888c0.717,-0.77 0.555,-1.508 -0.409,-1.947l-7.423,-3.139Z" style="fill:#e63149;fill-rule:nonzero;"/><path d="M451.009,84.306c0.265,-0.152 0.457,-0.405 0.534,-0.7c0.077,-0.296 0.032,-0.61 -0.126,-0.872l-2.775,-4.625c-0.403,-0.671 -1.255,-0.918 -1.953,-0.566c-0.201,0.102 -0.389,0.191 -0.532,0.248c-4.217,1.692 -9.223,0.43 -12.136,-3.039c-0.071,-0.084 -0.158,-0.199 -0.251,-0.327c-0.449,-0.615 -1.292,-0.78 -1.941,-0.383l-4.336,2.659c-0.332,0.204 -0.565,0.535 -0.645,0.917c-0.08,0.381 0.001,0.778 0.223,1.098c0.004,0.005 0.008,0.011 0.012,0.016c5.39,7.639 15.653,10.053 23.892,5.593c0.011,-0.006 0.022,-0.012 0.034,-0.019" style="fill:#e63149;fill-rule:nonzero;"/><path d="M479.685,35.13l5.965,9.848l-2.954,1.789c-0.364,0.22 -0.625,0.576 -0.727,0.989c-0.101,0.413 -0.034,0.85 0.187,1.213l2.537,4.18c0.424,0.698 1.333,0.921 2.031,0.498l8.611,-5.215c0.799,-0.484 0.982,-1.228 0.497,-2.028l-9.328,-15.403c-0.485,-0.8 -1.228,-0.982 -2.028,-0.498l-4.292,2.6c-0.801,0.484 -0.983,1.228 -0.499,2.027" style="fill:#e63149;fill-rule:nonzero;"/><path d="M471.593,31.987l-0.135,-5.105c-0.008,-0.33 -0.154,-0.644 -0.399,-0.863c-0.246,-0.22 -0.575,-0.331 -0.902,-0.302c-4.756,0.432 -9.079,2.657 -12.191,6.265c-0.193,0.225 -0.298,0.511 -0.295,0.807c0,0.039 0.003,0.079 0.007,0.119c0.036,0.335 0.21,0.642 0.478,0.844l4.102,3.085c0.507,0.381 1.231,0.306 1.649,-0.17c1.58,-1.797 3.649,-2.933 6.149,-3.375c0.114,-0.02 0.262,-0.039 0.424,-0.056c0.641,-0.067 1.119,-0.604 1.113,-1.249" style="fill:#e63149;fill-rule:nonzero;"/><path d="M407.567,35.711c0.862,-0.318 1.433,-1.142 1.428,-2.06l-0.021,-4.676c-0.002,-0.441 -0.218,-0.853 -0.578,-1.106c-0.361,-0.252 -0.822,-0.314 -1.237,-0.165l-10.365,3.72c-0.812,0.29 -1.145,0.818 -1.141,1.631l0.021,5.308c0.004,1.052 0.627,1.48 1.631,1.14l10.262,-3.792Z" style="fill:#e63149;fill-rule:nonzero;"/><path d="M366.875,32.565c-0.58,0.714 -0.652,1.714 -0.18,2.503l2.406,4.016c0.226,0.377 0.621,0.622 1.059,0.656c0.438,0.034 0.866,-0.147 1.148,-0.484l5.212,-6.254c0.55,-0.664 0.567,-1.287 0.149,-1.985l-2.725,-4.555c-0.541,-0.903 -1.294,-0.953 -1.984,-0.149l-5.085,6.252Z" style="fill:#e63149;fill-rule:nonzero;"/><path d="M496.628,76.509c0.304,-0.214 0.51,-0.54 0.573,-0.906c0.062,-0.366 -0.025,-0.742 -0.241,-1.044l-2.759,-3.851l4.884,0.218c0.716,0.032 1.323,-0.522 1.356,-1.238l0.204,-4.402c0.016,-0.348 -0.107,-0.687 -0.342,-0.944c-0.235,-0.256 -0.562,-0.408 -0.91,-0.423l-13.206,-0.54c-0.662,-0.022 -1.135,0.228 -1.466,0.837l-1.107,2.044c-0.332,0.609 -0.283,1.141 0.097,1.686l7.49,10.535c0.482,0.678 1.421,0.84 2.102,0.362l3.325,-2.334Z" style="fill:#e63149;fill-rule:nonzero;"/><path d="M343.502,46.245c0.561,-0.549 0.571,-1.449 0.023,-2.01l-4.506,-4.618c-0.652,-0.669 -1.417,-0.679 -2.087,-0.026l-3.592,3.505c-0.669,0.653 -0.679,1.419 -0.026,2.088l4.498,4.61c0.268,0.274 0.633,0.43 1.016,0.435c0.383,0.004 0.752,-0.144 1.026,-0.412l3.648,-3.572Z" style="fill:#e63149;fill-rule:nonzero;"/><path d="M343.576,86.607c-1.152,0.295 -1.762,-0.486 -1.982,-1.292l-1.272,-4.532c-0.245,-0.902 0.135,-1.566 1.037,-1.811l16.192,-4.295c0.901,-0.244 1.566,0.136 1.812,1.038l1.329,4.89c0.243,0.903 -0.136,1.567 -1.038,1.812c0,0 -15.526,4.049 -16.078,4.19" style="fill:#e63149;fill-rule:nonzero;"/><g><clipPath id="_clip1"><path d="M0,0l0,99.857l24,-6.857l15,-7l22.223,20l16.592,0l8.185,-6.5l17,-4.5l9,-9l14,6c0,0 8.517,8.518 12.713,14l11.098,0c4.562,-3.03 9.189,-6.5 9.189,-6.5l33,-13.5l20,20l14.852,0l9.148,-6.5l28,-17.839l27,24.339l45,-20l5.504,-15l-8.842,-12l3.338,-23l5.504,0l0,-36l-341.504,0Z" clip-rule="nonzero"/></clipPath><g clip-path="url(#_clip1)"><path d="M-17.756,13.543l7.451,8.405l-2.685,2.38c-0.267,0.237 -0.43,0.57 -0.45,0.926c-0.022,0.357 0.099,0.707 0.336,0.974l3.313,3.729c0.529,0.595 1.44,0.649 2.036,0.121l7.349,-6.514c0.682,-0.604 0.728,-1.35 0.123,-2.033l-11.654,-13.146c-0.604,-0.683 -1.349,-0.727 -2.033,-0.123l-3.662,3.249c-0.684,0.603 -0.729,1.35 -0.124,2.032" style="fill:#e63149;fill-rule:nonzero;"/><path d="M19.431,36.578c-0.543,0.52 -0.577,1.374 -0.079,1.937c1.545,1.747 2.517,3.994 2.633,6.381c0.005,0.108 0.005,0.248 0.002,0.402c-0.017,0.743 0.541,1.371 1.28,1.445l4.937,0.496c0.378,0.039 0.755,-0.081 1.042,-0.331c0.287,-0.249 0.461,-0.605 0.476,-0.985c-0.001,-0.006 0,-0.013 0.001,-0.018c0.172,-4.85 -1.599,-9.364 -4.655,-12.739c-0.254,-0.28 -0.609,-0.446 -0.987,-0.459c-0.377,-0.013 -0.744,0.126 -1.016,0.387l-3.634,3.484Z" style="fill:#e63149;fill-rule:nonzero;"/><path d="M0.969,34.821c-0.01,0.298 0.101,0.587 0.307,0.803c0.206,0.215 0.49,0.338 0.787,0.343l5.262,0.072c0.763,0.011 1.406,-0.569 1.472,-1.329c0.019,-0.218 0.041,-0.421 0.067,-0.568c0.763,-4.367 4.381,-7.871 8.753,-8.505c0.107,-0.015 0.247,-0.029 0.401,-0.041c0.74,-0.056 1.31,-0.67 1.313,-1.413l0.022,-4.963c0.001,-0.379 -0.153,-0.742 -0.428,-1.004c-0.274,-0.262 -0.644,-0.4 -1.023,-0.38c-0.008,0 -0.016,0.001 -0.024,0.001c-9.103,0.549 -16.376,7.822 -16.907,16.946c-0.001,0.012 -0.002,0.025 -0.002,0.038" style="fill:#e63149;fill-rule:nonzero;"/><path d="M8.37,9.539l9.951,-5.209l1.664,3.179c0.166,0.316 0.45,0.554 0.791,0.66c0.341,0.107 0.71,0.073 1.026,-0.092l4.416,-2.317c0.706,-0.371 0.978,-1.242 0.609,-1.947l-4.554,-8.702c-0.423,-0.808 -1.136,-1.031 -1.944,-0.608l-15.565,8.146c-0.807,0.422 -1.031,1.135 -0.609,1.944l2.271,4.337c0.423,0.809 1.136,1.032 1.944,0.609" style="fill:#e63149;fill-rule:nonzero;"/><path d="M66.237,60.186c0.895,-0.225 1.554,-0.985 1.649,-1.904l0.508,-4.942c0.039,-0.377 -0.107,-0.751 -0.393,-1.001c-0.286,-0.25 -0.675,-0.347 -1.044,-0.259l-8.21,1.956c-0.842,0.203 -1.231,0.694 -1.314,1.506l-0.547,5.299c-0.109,1.051 0.467,1.545 1.504,1.314l7.847,-1.969Z" style="fill:#e63149;fill-rule:nonzero;"/><path d="M43.98,14.6c-0.308,-0.187 -0.678,-0.243 -1.028,-0.156c-0.35,0.088 -0.651,0.312 -0.834,0.621l-2.346,3.953l-1.711,-4.424c-0.25,-0.649 -0.979,-0.972 -1.629,-0.723l-3.99,1.536c-0.315,0.121 -0.569,0.362 -0.705,0.671c-0.136,0.309 -0.144,0.659 -0.021,0.974l4.67,11.943c0.238,0.598 0.645,0.922 1.315,0.977l2.248,0.189c0.669,0.055 1.123,-0.196 1.459,-0.746l6.441,-10.762c0.415,-0.693 0.192,-1.59 -0.498,-2.009l-3.371,-2.044Z" style="fill:#e63149;fill-rule:nonzero;"/><path d="M32.997,-11.164c-0.297,0.031 -0.568,0.18 -0.754,0.413c-0.186,0.233 -0.27,0.531 -0.234,0.827l0.648,5.223c0.093,0.757 0.756,1.315 1.518,1.275c0.218,-0.011 0.421,-0.016 0.571,-0.011c4.43,0.16 8.396,3.265 9.621,7.51c0.03,0.104 0.063,0.24 0.095,0.391c0.157,0.726 0.844,1.207 1.579,1.108l4.92,-0.656c0.377,-0.051 0.716,-0.255 0.938,-0.563c0.221,-0.309 0.306,-0.695 0.234,-1.068c-0.002,-0.006 -0.003,-0.013 -0.004,-0.018c-1.787,-8.943 -9.985,-15.154 -19.097,-14.434c-0.011,0.001 -0.022,0.002 -0.035,0.003" style="fill:#e63149;fill-rule:nonzero;"/><path d="M57.141,13.543l7.451,8.405l-2.685,2.38c-0.267,0.237 -0.43,0.57 -0.451,0.926c-0.021,0.357 0.1,0.707 0.337,0.974l3.313,3.729c0.528,0.595 1.44,0.649 2.036,0.121l7.349,-6.514c0.682,-0.604 0.729,-1.35 0.123,-2.033l-11.654,-13.146c-0.604,-0.683 -1.349,-0.727 -2.033,-0.123l-3.662,3.249c-0.684,0.603 -0.729,1.35 -0.124,2.032" style="fill:#e63149;fill-rule:nonzero;"/><path d="M70.702,-1.764c0.28,-0.227 0.458,-0.556 0.494,-0.915c0.036,-0.359 -0.073,-0.717 -0.302,-0.995l-2.926,-3.545l4.742,-0.113c0.696,-0.017 1.246,-0.593 1.231,-1.289l-0.095,-4.274c-0.008,-0.338 -0.149,-0.658 -0.394,-0.891c-0.244,-0.232 -0.572,-0.358 -0.909,-0.349l-12.82,0.355c-0.642,0.022 -1.084,0.296 -1.364,0.907l-0.936,2.052c-0.28,0.611 -0.197,1.124 0.206,1.626l7.95,9.701c0.512,0.624 1.432,0.718 2.06,0.21l3.063,-2.48Z" style="fill:#e63149;fill-rule:nonzero;"/><path d="M45.361,59.112c-2.612,-3.924 -2.301,-9.2 1.073,-12.8c3.462,-3.693 8.921,-4.336 13.013,-1.713c0.974,0.624 1.713,1.022 2.638,0.035c0.643,-0.686 2.412,-2.574 3.433,-3.663c0.202,-0.215 0.305,-0.504 0.286,-0.798c-0.018,-0.294 -0.158,-0.567 -0.385,-0.755c-7.267,-6.008 -18.093,-5.429 -24.658,1.576c-6.477,6.912 -6.446,17.556 -0.234,24.431c0.262,0.29 0.632,0.456 1.022,0.459c0.39,0.005 0.764,-0.155 1.031,-0.439c1.011,-1.079 2.495,-2.663 2.965,-3.165c0.738,-0.785 0.887,-1.558 -0.184,-3.168" style="fill:#e63149;fill-rule:nonzero;"/><path d="M3.412,51.646c-0.867,-0.77 -0.568,-1.69 -0.036,-2.308l2.971,-3.501c0.596,-0.691 1.341,-0.745 2.031,-0.149l12.307,10.751c0.688,0.596 0.744,1.342 0.149,2.033l-3.23,3.742c-0.597,0.69 -1.341,0.745 -2.032,0.148c0,0 -11.744,-10.347 -12.16,-10.716" style="fill:#e63149;fill-rule:nonzero;"/><path d="M-1.611,101.543c0.28,-0.227 0.458,-0.556 0.494,-0.915c0.036,-0.359 -0.073,-0.717 -0.302,-0.995l-2.926,-3.545l4.742,-0.113c0.696,-0.017 1.246,-0.593 1.231,-1.289l-0.096,-4.274c-0.007,-0.338 -0.149,-0.658 -0.394,-0.891c-0.244,-0.232 -0.571,-0.358 -0.909,-0.349l-12.819,0.355c-0.643,0.022 -1.085,0.296 -1.364,0.907l-0.937,2.052c-0.279,0.611 -0.197,1.124 0.207,1.626l7.949,9.701c0.512,0.624 1.432,0.719 2.059,0.21l3.065,-2.48Z" style="fill:#e63149;fill-rule:nonzero;"/><path d="M10.954,112.845l9.951,-5.209l1.664,3.179c0.166,0.316 0.45,0.554 0.791,0.661c0.341,0.105 0.71,0.072 1.026,-0.094l4.416,-2.316c0.706,-0.37 0.978,-1.242 0.609,-1.947l-4.554,-8.702c-0.423,-0.808 -1.136,-1.031 -1.944,-0.608l-15.565,8.147c-0.807,0.421 -1.031,1.134 -0.609,1.943l2.271,4.337c0.423,0.809 1.136,1.032 1.944,0.609" style="fill:#e63149;fill-rule:nonzero;"/><path d="M46.581,80.745c-0.411,0.827 -0.261,1.822 0.376,2.491l3.425,3.597c0.263,0.275 0.641,0.406 1.017,0.352c0.376,-0.054 0.702,-0.288 0.875,-0.626l3.849,-7.511c0.393,-0.771 0.272,-1.386 -0.292,-1.977l-3.672,-3.86c-0.728,-0.766 -1.478,-0.648 -1.975,0.291l-3.603,7.243Z" style="fill:#e63149;fill-rule:nonzero;"/><path d="M25.474,66.818c2.554,3.961 2.166,9.231 -1.261,12.782c-3.515,3.642 -8.982,4.205 -13.036,1.522c-0.965,-0.638 -1.698,-1.047 -2.637,-0.074c-0.653,0.677 -2.451,2.539 -3.487,3.613c-0.205,0.212 -0.313,0.499 -0.298,0.794c0.014,0.294 0.15,0.569 0.375,0.76c7.179,6.114 18.01,5.693 24.678,-1.215c6.578,-6.816 6.702,-17.458 0.592,-24.424c-0.257,-0.293 -0.625,-0.465 -1.015,-0.475c-0.389,-0.009 -0.766,0.144 -1.036,0.425c-1.028,1.064 -2.535,2.626 -3.013,3.121c-0.749,0.775 -0.91,1.545 0.138,3.171" style="fill:#e63149;fill-rule:nonzero;"/><path d="M35.574,92.142c-0.296,0.032 -0.566,0.181 -0.75,0.415c-0.185,0.233 -0.268,0.53 -0.231,0.825l0.647,5.223c0.094,0.757 0.756,1.315 1.518,1.275c0.218,-0.011 0.422,-0.016 0.571,-0.011c4.431,0.16 8.396,3.266 9.622,7.51c0.03,0.103 0.063,0.24 0.095,0.391c0.157,0.726 0.844,1.207 1.579,1.108l4.919,-0.657c0.376,-0.05 0.714,-0.253 0.936,-0.561c0.222,-0.307 0.309,-0.693 0.237,-1.065c-0.001,-0.008 -0.002,-0.015 -0.004,-0.022c-1.788,-8.943 -9.985,-15.155 -19.097,-14.435c-0.013,0.001 -0.027,0.002 -0.042,0.004" style="fill:#e63149;fill-rule:nonzero;"/><path d="M73.286,101.543c0.28,-0.227 0.458,-0.556 0.494,-0.915c0.036,-0.359 -0.073,-0.717 -0.302,-0.995l-2.926,-3.545l4.742,-0.113c0.695,-0.017 1.246,-0.593 1.23,-1.289l-0.095,-4.274c-0.007,-0.338 -0.149,-0.658 -0.394,-0.891c-0.244,-0.232 -0.572,-0.358 -0.909,-0.349l-12.819,0.355c-0.643,0.022 -1.085,0.296 -1.364,0.907l-0.937,2.052c-0.279,0.611 -0.196,1.124 0.207,1.626l7.949,9.701c0.512,0.624 1.432,0.719 2.059,0.21l3.065,-2.48Z" style="fill:#e63149;fill-rule:nonzero;"/><path d="M-7.72,76.457c-1.125,0.284 -1.718,-0.481 -1.93,-1.267l-1.226,-4.426c-0.236,-0.88 0.138,-1.527 1.018,-1.764l15.81,-4.134c0.88,-0.236 1.528,0.137 1.764,1.018l1.281,4.775c0.235,0.881 -0.137,1.527 -1.019,1.764c0,0 -15.16,3.898 -15.698,4.034" style="fill:#e63149;fill-rule:nonzero;"/><path d="M95.38,36.578c-0.543,0.52 -0.577,1.374 -0.079,1.937c1.545,1.747 2.517,3.994 2.633,6.381c0.005,0.108 0.005,0.248 0.002,0.402c-0.016,0.743 0.541,1.371 1.28,1.445l4.937,0.497c0.379,0.037 0.755,-0.082 1.042,-0.332c0.288,-0.249 0.461,-0.604 0.476,-0.985c0,-0.006 0,-0.012 0.001,-0.018c0.173,-4.85 -1.599,-9.364 -4.654,-12.739c-0.254,-0.28 -0.61,-0.446 -0.987,-0.459c-0.377,-0.014 -0.744,0.126 -1.016,0.387l-3.635,3.484Z" style="fill:#e63149;fill-rule:nonzero;"/><path d="M76.918,34.822c-0.009,0.298 0.101,0.586 0.307,0.802c0.206,0.215 0.49,0.339 0.788,0.343l5.261,0.073c0.763,0.01 1.406,-0.57 1.472,-1.33c0.018,-0.218 0.041,-0.421 0.066,-0.568c0.763,-4.367 4.382,-7.871 8.753,-8.505c0.107,-0.016 0.247,-0.029 0.401,-0.041c0.741,-0.056 1.311,-0.671 1.314,-1.413l0.021,-4.962c0.002,-0.38 -0.153,-0.742 -0.427,-1.004c-0.275,-0.262 -0.645,-0.4 -1.024,-0.381c-0.008,0.001 -0.015,0.001 -0.022,0.002c-9.104,0.548 -16.376,7.82 -16.908,16.945c-0.001,0.012 -0.002,0.025 -0.002,0.039" style="fill:#e63149;fill-rule:nonzero;"/><path d="M84.319,9.539l9.951,-5.209l1.664,3.179c0.166,0.316 0.45,0.554 0.791,0.66c0.341,0.107 0.71,0.073 1.026,-0.092l4.417,-2.317c0.705,-0.371 0.977,-1.242 0.608,-1.947l-4.554,-8.703c-0.423,-0.807 -1.136,-1.03 -1.944,-0.607l-15.565,8.146c-0.808,0.422 -1.031,1.135 -0.608,1.944l2.27,4.337c0.423,0.809 1.136,1.032 1.944,0.609" style="fill:#e63149;fill-rule:nonzero;"/><path d="M142.185,60.186c0.895,-0.225 1.554,-0.985 1.649,-1.904l0.508,-4.942c0.039,-0.378 -0.108,-0.751 -0.393,-1.001c-0.286,-0.25 -0.676,-0.347 -1.045,-0.259l-8.209,1.956c-0.841,0.202 -1.23,0.694 -1.314,1.506l-0.547,5.299c-0.11,1.051 0.467,1.545 1.505,1.314l7.846,-1.969Z" style="fill:#e63149;fill-rule:nonzero;"/><path d="M119.928,14.6c-0.308,-0.187 -0.678,-0.243 -1.028,-0.156c-0.35,0.088 -0.65,0.312 -0.834,0.621l-2.347,3.953l-1.71,-4.425c-0.25,-0.649 -0.98,-0.972 -1.629,-0.722l-3.99,1.536c-0.315,0.121 -0.568,0.363 -0.705,0.672c-0.136,0.308 -0.143,0.659 -0.02,0.973l4.669,11.943c0.238,0.598 0.645,0.922 1.315,0.978l2.248,0.187c0.669,0.056 1.123,-0.196 1.46,-0.745l6.44,-10.762c0.415,-0.693 0.192,-1.591 -0.498,-2.009l-3.371,-2.044Z" style="fill:#e63149;fill-rule:nonzero;"/><path d="M108.94,-11.163c-0.296,0.032 -0.566,0.181 -0.751,0.414c-0.185,0.233 -0.269,0.531 -0.232,0.826l0.647,5.223c0.094,0.757 0.756,1.315 1.518,1.275c0.219,-0.01 0.422,-0.016 0.572,-0.01c4.431,0.159 8.396,3.264 9.621,7.509c0.03,0.103 0.063,0.239 0.095,0.389c0.157,0.727 0.844,1.208 1.579,1.11l4.919,-0.657c0.376,-0.05 0.716,-0.253 0.937,-0.562c0.222,-0.308 0.308,-0.694 0.236,-1.067c-0.001,-0.007 -0.002,-0.013 -0.004,-0.02c-1.788,-8.943 -9.985,-15.155 -19.095,-14.435c-0.014,0.002 -0.027,0.003 -0.042,0.005" style="fill:#e63149;fill-rule:nonzero;"/><path d="M133.09,13.543l7.451,8.405l-2.685,2.38c-0.267,0.237 -0.429,0.57 -0.45,0.926c-0.021,0.357 0.1,0.707 0.337,0.974l3.312,3.729c0.529,0.595 1.44,0.649 2.036,0.121l7.349,-6.514c0.683,-0.604 0.728,-1.35 0.123,-2.033l-11.654,-13.146c-0.604,-0.683 -1.349,-0.727 -2.032,-0.123l-3.663,3.249c-0.684,0.603 -0.729,1.35 -0.124,2.032" style="fill:#e63149;fill-rule:nonzero;"/><path d="M146.651,-1.764c0.28,-0.227 0.458,-0.556 0.494,-0.915c0.036,-0.359 -0.073,-0.717 -0.302,-0.995l-2.926,-3.545l4.742,-0.113c0.695,-0.017 1.246,-0.593 1.23,-1.289l-0.095,-4.274c-0.007,-0.338 -0.149,-0.658 -0.393,-0.891c-0.245,-0.232 -0.572,-0.358 -0.909,-0.349l-12.82,0.355c-0.643,0.022 -1.085,0.296 -1.364,0.907l-0.937,2.052c-0.279,0.611 -0.196,1.124 0.207,1.626l7.949,9.701c0.512,0.624 1.432,0.719 2.059,0.21l3.065,-2.48Z" style="fill:#e63149;fill-rule:nonzero;"/><path d="M121.309,59.112c-2.612,-3.924 -2.301,-9.2 1.073,-12.8c3.462,-3.693 8.921,-4.336 13.013,-1.713c0.974,0.624 1.714,1.022 2.638,0.035c0.643,-0.686 2.412,-2.574 3.433,-3.663c0.202,-0.215 0.305,-0.504 0.287,-0.798c-0.019,-0.294 -0.159,-0.567 -0.386,-0.755c-7.267,-6.008 -18.093,-5.428 -24.658,1.577c-6.477,6.911 -6.446,17.555 -0.234,24.43c0.261,0.289 0.632,0.456 1.022,0.459c0.39,0.005 0.764,-0.155 1.031,-0.439c1.011,-1.079 2.495,-2.663 2.965,-3.165c0.737,-0.785 0.887,-1.558 -0.184,-3.168" style="fill:#e63149;fill-rule:nonzero;"/><path d="M79.36,51.646c-0.867,-0.77 -0.568,-1.69 -0.036,-2.308l2.971,-3.501c0.595,-0.691 1.34,-0.745 2.031,-0.149l12.306,10.751c0.689,0.596 0.745,1.342 0.15,2.033l-3.23,3.742c-0.597,0.69 -1.341,0.745 -2.032,0.148c0,0 -11.744,-10.347 -12.16,-10.716" style="fill:#e63149;fill-rule:nonzero;"/><path d="M170.277,36.578c-0.543,0.52 -0.577,1.374 -0.079,1.937c1.545,1.747 2.517,3.994 2.633,6.381c0.005,0.107 0.005,0.247 0.001,0.402c-0.016,0.743 0.542,1.37 1.281,1.445l4.937,0.496c0.378,0.038 0.754,-0.082 1.041,-0.331c0.288,-0.249 0.461,-0.605 0.477,-0.985c-0.001,-0.006 0,-0.012 0.001,-0.018c0.172,-4.85 -1.599,-9.364 -4.656,-12.74c-0.253,-0.28 -0.608,-0.445 -0.986,-0.458c-0.376,-0.014 -0.744,0.126 -1.016,0.387l-3.634,3.484Z" style="fill:#e63149;fill-rule:nonzero;"/><path d="M151.815,34.821c-0.009,0.298 0.101,0.587 0.307,0.802c0.206,0.216 0.49,0.339 0.787,0.343l5.262,0.073c0.763,0.01 1.405,-0.569 1.471,-1.329c0.019,-0.219 0.042,-0.421 0.068,-0.568c0.762,-4.367 4.38,-7.871 8.752,-8.505c0.107,-0.016 0.247,-0.03 0.4,-0.042c0.741,-0.055 1.312,-0.67 1.315,-1.413l0.021,-4.963c0.001,-0.379 -0.154,-0.743 -0.429,-1.004c-0.274,-0.262 -0.645,-0.399 -1.024,-0.379c-0.007,0.001 -0.014,0.001 -0.021,0.001c-9.103,0.549 -16.376,7.821 -16.907,16.945c-0.001,0.012 -0.002,0.025 -0.002,0.039" style="fill:#e63149;fill-rule:nonzero;"/><path d="M159.215,9.539l9.951,-5.209l1.664,3.179c0.165,0.316 0.45,0.554 0.791,0.66c0.34,0.106 0.709,0.073 1.025,-0.092l4.417,-2.317c0.706,-0.371 0.977,-1.242 0.608,-1.947l-4.553,-8.702c-0.423,-0.808 -1.136,-1.031 -1.944,-0.608l-15.565,8.147c-0.808,0.422 -1.031,1.134 -0.608,1.943l2.27,4.337c0.423,0.809 1.136,1.032 1.944,0.609" style="fill:#e63149;fill-rule:nonzero;"/><path d="M217.082,60.186c0.895,-0.225 1.554,-0.985 1.649,-1.904l0.508,-4.942c0.039,-0.377 -0.108,-0.751 -0.393,-1.001c-0.286,-0.25 -0.675,-0.347 -1.044,-0.259l-8.21,1.956c-0.841,0.203 -1.23,0.694 -1.313,1.506l-0.548,5.299c-0.109,1.051 0.468,1.545 1.505,1.314l7.846,-1.969Z" style="fill:#e63149;fill-rule:nonzero;"/><path d="M194.826,14.6c-0.308,-0.187 -0.678,-0.243 -1.028,-0.155c-0.35,0.087 -0.65,0.311 -0.834,0.621l-2.346,3.952l-1.71,-4.425c-0.251,-0.649 -0.98,-0.972 -1.629,-0.722l-3.99,1.536c-0.315,0.121 -0.569,0.363 -0.705,0.672c-0.136,0.308 -0.144,0.659 -0.021,0.973l4.669,11.943c0.239,0.598 0.645,0.921 1.315,0.978l2.248,0.187c0.669,0.056 1.124,-0.196 1.46,-0.746l6.44,-10.761c0.415,-0.693 0.192,-1.59 -0.498,-2.009l-3.371,-2.044Z" style="fill:#e63149;fill-rule:nonzero;"/><path d="M183.836,-11.163c-0.296,0.032 -0.567,0.181 -0.751,0.415c-0.185,0.232 -0.268,0.53 -0.232,0.825l0.647,5.223c0.094,0.757 0.756,1.315 1.518,1.275c0.219,-0.01 0.422,-0.016 0.573,-0.01c4.43,0.159 8.395,3.264 9.621,7.509c0.03,0.103 0.062,0.239 0.095,0.39c0.157,0.726 0.843,1.207 1.579,1.109l4.92,-0.657c0.377,-0.05 0.716,-0.254 0.938,-0.562c0.222,-0.309 0.306,-0.695 0.233,-1.068c-0.001,-0.007 -0.002,-0.013 -0.003,-0.019c-1.788,-8.943 -9.985,-15.154 -19.096,-14.434c-0.013,0.001 -0.027,0.002 -0.042,0.004" style="fill:#e63149;fill-rule:nonzero;"/><path d="M207.986,13.543l7.451,8.405l-2.685,2.38c-0.267,0.237 -0.429,0.57 -0.45,0.926c-0.021,0.357 0.1,0.707 0.337,0.974l3.313,3.729c0.528,0.596 1.44,0.65 2.036,0.122l7.348,-6.515c0.683,-0.604 0.728,-1.35 0.123,-2.033l-11.654,-13.146c-0.604,-0.683 -1.349,-0.727 -2.032,-0.123l-3.663,3.249c-0.684,0.603 -0.729,1.35 -0.124,2.032" style="fill:#e63149;fill-rule:nonzero;"/><path d="M221.548,-1.764c0.28,-0.227 0.458,-0.556 0.494,-0.915c0.036,-0.359 -0.073,-0.717 -0.302,-0.995l-2.926,-3.545l4.742,-0.113c0.695,-0.017 1.246,-0.593 1.23,-1.289l-0.095,-4.274c-0.007,-0.338 -0.149,-0.658 -0.393,-0.891c-0.245,-0.232 -0.572,-0.358 -0.909,-0.349l-12.82,0.355c-0.643,0.022 -1.085,0.296 -1.364,0.907l-0.937,2.052c-0.279,0.611 -0.196,1.124 0.207,1.626l7.95,9.701c0.512,0.624 1.432,0.718 2.059,0.21l3.064,-2.48Z" style="fill:#e63149;fill-rule:nonzero;"/><path d="M196.206,59.112c-2.612,-3.924 -2.301,-9.2 1.073,-12.8c3.462,-3.692 8.92,-4.335 13.013,-1.713c0.973,0.624 1.713,1.022 2.637,0.036c0.643,-0.687 2.413,-2.575 3.434,-3.664c0.202,-0.215 0.305,-0.504 0.286,-0.798c-0.018,-0.294 -0.158,-0.567 -0.385,-0.755c-7.267,-6.007 -18.093,-5.428 -24.658,1.577c-6.477,6.911 -6.445,17.555 -0.234,24.43c0.261,0.289 0.632,0.456 1.022,0.459c0.39,0.005 0.764,-0.155 1.031,-0.439c1.011,-1.079 2.495,-2.663 2.965,-3.165c0.737,-0.785 0.887,-1.558 -0.184,-3.168" style="fill:#e63149;fill-rule:nonzero;"/><path d="M154.258,51.646c-0.867,-0.77 -0.568,-1.69 -0.037,-2.308l2.972,-3.501c0.595,-0.691 1.34,-0.745 2.03,-0.149l12.307,10.751c0.688,0.596 0.745,1.342 0.15,2.033l-3.23,3.742c-0.597,0.69 -1.341,0.745 -2.032,0.148c0,0 -11.745,-10.347 -12.16,-10.716" style="fill:#e63149;fill-rule:nonzero;"/><path d="M245.173,36.578c-0.542,0.52 -0.577,1.374 -0.079,1.937c1.545,1.747 2.517,3.993 2.633,6.381c0.004,0.107 0.005,0.248 0.002,0.402c-0.016,0.743 0.541,1.371 1.28,1.445l4.938,0.496c0.378,0.038 0.754,-0.081 1.041,-0.331c0.288,-0.249 0.461,-0.604 0.476,-0.985c0,-0.006 0,-0.012 0.001,-0.018c0.172,-4.85 -1.599,-9.364 -4.655,-12.739c-0.253,-0.28 -0.609,-0.446 -0.986,-0.459c-0.377,-0.014 -0.744,0.126 -1.017,0.387l-3.634,3.484Z" style="fill:#e63149;fill-rule:nonzero;"/><path d="M226.712,34.822c-0.009,0.298 0.101,0.586 0.307,0.802c0.206,0.215 0.49,0.339 0.787,0.343l5.262,0.073c0.763,0.01 1.406,-0.57 1.472,-1.33c0.019,-0.218 0.041,-0.421 0.067,-0.568c0.762,-4.367 4.38,-7.871 8.753,-8.505c0.107,-0.016 0.246,-0.029 0.4,-0.041c0.741,-0.056 1.311,-0.671 1.314,-1.413l0.022,-4.964c0.001,-0.379 -0.154,-0.743 -0.429,-1.004c-0.275,-0.262 -0.645,-0.399 -1.024,-0.379c-0.007,0 -0.015,0.001 -0.022,0.001c-9.103,0.549 -16.376,7.821 -16.907,16.946c-0.001,0.012 -0.002,0.025 -0.002,0.039" style="fill:#e63149;fill-rule:nonzero;"/><path d="M234.113,9.539l9.951,-5.209l1.664,3.179c0.165,0.316 0.45,0.554 0.791,0.66c0.34,0.106 0.709,0.073 1.025,-0.092l4.417,-2.317c0.706,-0.371 0.977,-1.242 0.608,-1.947l-4.553,-8.702c-0.423,-0.808 -1.136,-1.031 -1.944,-0.608l-15.565,8.147c-0.808,0.422 -1.031,1.134 -0.608,1.943l2.27,4.337c0.423,0.809 1.136,1.032 1.944,0.609" style="fill:#e63149;fill-rule:nonzero;"/><path d="M291.98,60.186c0.895,-0.225 1.554,-0.985 1.649,-1.904l0.508,-4.942c0.039,-0.377 -0.108,-0.751 -0.393,-1.001c-0.286,-0.25 -0.675,-0.347 -1.044,-0.259l-8.21,1.956c-0.841,0.202 -1.23,0.694 -1.314,1.506l-0.547,5.299c-0.109,1.051 0.467,1.545 1.504,1.314l7.847,-1.969Z" style="fill:#e63149;fill-rule:nonzero;"/><path d="M269.723,14.6c-0.308,-0.187 -0.678,-0.243 -1.028,-0.156c-0.35,0.088 -0.65,0.312 -0.834,0.622l-2.346,3.952l-1.711,-4.425c-0.25,-0.649 -0.979,-0.972 -1.629,-0.722l-3.99,1.536c-0.315,0.121 -0.568,0.363 -0.704,0.672c-0.136,0.308 -0.144,0.659 -0.021,0.973l4.669,11.943c0.238,0.598 0.645,0.921 1.315,0.978l2.248,0.187c0.669,0.056 1.123,-0.196 1.46,-0.746l6.44,-10.761c0.415,-0.693 0.192,-1.591 -0.499,-2.009l-3.37,-2.044Z" style="fill:#e63149;fill-rule:nonzero;"/><path d="M258.734,-11.163c-0.296,0.032 -0.566,0.181 -0.751,0.414c-0.185,0.233 -0.268,0.531 -0.232,0.826l0.647,5.223c0.094,0.757 0.756,1.314 1.518,1.275c0.219,-0.011 0.422,-0.016 0.572,-0.01c4.431,0.159 8.396,3.264 9.622,7.509c0.03,0.103 0.062,0.239 0.095,0.389c0.157,0.727 0.843,1.208 1.579,1.11l4.931,-0.659c0.373,-0.05 0.709,-0.251 0.929,-0.557c0.22,-0.305 0.305,-0.687 0.234,-1.057c-0.003,-0.011 -0.005,-0.023 -0.007,-0.033c-1.787,-8.944 -9.984,-15.155 -19.095,-14.435c-0.013,0.002 -0.027,0.003 -0.042,0.005" style="fill:#e63149;fill-rule:nonzero;"/><path d="M282.884,13.543l7.451,8.405l-2.685,2.38c-0.267,0.237 -0.429,0.57 -0.45,0.926c-0.021,0.357 0.1,0.707 0.337,0.974l3.313,3.729c0.528,0.595 1.44,0.649 2.035,0.121l7.349,-6.514c0.683,-0.604 0.729,-1.35 0.123,-2.033l-11.654,-13.146c-0.604,-0.683 -1.349,-0.727 -2.032,-0.123l-3.663,3.249c-0.684,0.603 -0.729,1.35 -0.124,2.032" style="fill:#e63149;fill-rule:nonzero;"/><path d="M296.445,-1.764c0.28,-0.227 0.458,-0.556 0.494,-0.915c0.036,-0.359 -0.073,-0.717 -0.302,-0.995l-2.926,-3.545l4.742,-0.113c0.695,-0.017 1.246,-0.593 1.23,-1.289l-0.095,-4.274c-0.007,-0.338 -0.149,-0.658 -0.393,-0.891c-0.245,-0.232 -0.572,-0.358 -0.909,-0.349l-12.82,0.355c-0.643,0.022 -1.085,0.296 -1.364,0.907l-0.937,2.052c-0.279,0.611 -0.196,1.124 0.207,1.626l7.95,9.701c0.511,0.624 1.431,0.719 2.059,0.21l3.064,-2.48Z" style="fill:#e63149;fill-rule:nonzero;"/><path d="M271.104,59.112c-2.612,-3.924 -2.301,-9.2 1.073,-12.8c3.462,-3.692 8.921,-4.335 13.013,-1.713c0.973,0.624 1.714,1.022 2.637,0.035c0.643,-0.686 2.414,-2.574 3.434,-3.663c0.202,-0.215 0.305,-0.504 0.287,-0.798c-0.019,-0.294 -0.159,-0.567 -0.386,-0.755c-7.267,-6.008 -18.093,-5.428 -24.658,1.577c-6.477,6.911 -6.445,17.555 -0.234,24.43c0.261,0.289 0.632,0.456 1.022,0.459c0.39,0.005 0.764,-0.155 1.031,-0.439c1.011,-1.079 2.495,-2.663 2.965,-3.165c0.737,-0.785 0.887,-1.558 -0.184,-3.168" style="fill:#e63149;fill-rule:nonzero;"/><path d="M229.155,51.646c-0.867,-0.77 -0.569,-1.69 -0.037,-2.308l2.972,-3.501c0.595,-0.691 1.34,-0.745 2.03,-0.149l12.307,10.751c0.688,0.596 0.745,1.342 0.149,2.033l-3.229,3.742c-0.597,0.69 -1.341,0.745 -2.032,0.148c0,0 -11.745,-10.347 -12.16,-10.716" style="fill:#e63149;fill-rule:nonzero;"/><path d="M320.071,36.578c-0.543,0.52 -0.577,1.374 -0.079,1.937c1.545,1.747 2.517,3.994 2.633,6.381c0.004,0.107 0.005,0.248 0.001,0.402c-0.016,0.743 0.541,1.371 1.281,1.445l4.937,0.496c0.378,0.039 0.754,-0.081 1.042,-0.331c0.287,-0.249 0.46,-0.605 0.476,-0.985c-0.001,-0.006 0,-0.013 0.001,-0.018c0.172,-4.85 -1.599,-9.364 -4.655,-12.739c-0.253,-0.28 -0.609,-0.446 -0.986,-0.459c-0.377,-0.013 -0.744,0.126 -1.017,0.387l-3.634,3.484Z" style="fill:#e63149;fill-rule:nonzero;"/><path d="M301.61,34.821c-0.009,0.298 0.101,0.587 0.307,0.802c0.205,0.216 0.489,0.34 0.787,0.344l5.262,0.073c0.763,0.01 1.406,-0.569 1.472,-1.329c0.019,-0.219 0.041,-0.421 0.067,-0.569c0.763,-4.366 4.381,-7.871 8.753,-8.504c0.107,-0.016 0.246,-0.03 0.4,-0.041c0.741,-0.057 1.311,-0.671 1.314,-1.413l0.022,-4.962c0.001,-0.38 -0.154,-0.744 -0.429,-1.005c-0.275,-0.263 -0.647,-0.4 -1.026,-0.38c-0.006,0 -0.013,0.001 -0.02,0.001c-9.103,0.548 -16.376,7.821 -16.907,16.946c-0.001,0.011 -0.002,0.024 -0.002,0.037" style="fill:#e63149;fill-rule:nonzero;"/><path d="M309.01,9.539l9.951,-5.209l1.664,3.179c0.166,0.316 0.45,0.554 0.791,0.66c0.341,0.107 0.71,0.073 1.026,-0.092l4.416,-2.317c0.706,-0.371 0.978,-1.242 0.609,-1.947l-4.553,-8.703c-0.424,-0.807 -1.137,-1.03 -1.945,-0.607l-15.565,8.146c-0.808,0.422 -1.031,1.135 -0.609,1.944l2.271,4.337c0.423,0.809 1.136,1.032 1.944,0.609" style="fill:#e63149;fill-rule:nonzero;"/><path d="M344.621,14.6c-0.308,-0.187 -0.678,-0.243 -1.028,-0.156c-0.35,0.088 -0.65,0.312 -0.834,0.621l-2.347,3.953l-1.71,-4.425c-0.251,-0.649 -0.98,-0.972 -1.629,-0.722l-3.99,1.536c-0.315,0.121 -0.568,0.363 -0.705,0.672c-0.136,0.308 -0.143,0.659 -0.02,0.973l4.669,11.943c0.238,0.598 0.645,0.922 1.315,0.978l2.248,0.187c0.669,0.056 1.123,-0.196 1.46,-0.745l6.44,-10.762c0.415,-0.693 0.192,-1.591 -0.499,-2.009l-3.37,-2.044Z" style="fill:#e63149;fill-rule:nonzero;"/><path d="M333.632,-11.163c-0.296,0.032 -0.567,0.181 -0.752,0.414c-0.185,0.233 -0.269,0.531 -0.232,0.826l0.647,5.223c0.094,0.757 0.756,1.314 1.518,1.275c0.219,-0.01 0.423,-0.016 0.572,-0.01c4.431,0.159 8.396,3.264 9.621,7.509c0.031,0.103 0.063,0.24 0.096,0.39c0.157,0.726 0.843,1.207 1.579,1.109l4.918,-0.657c0.377,-0.05 0.715,-0.253 0.937,-0.561c0.222,-0.308 0.308,-0.695 0.236,-1.068c-0.001,-0.007 -0.003,-0.013 -0.004,-0.02c-1.787,-8.943 -9.984,-15.154 -19.095,-14.435c-0.013,0.002 -0.027,0.003 -0.041,0.005" style="fill:#e63149;fill-rule:nonzero;"/><path d="M346.001,59.112c-2.612,-3.924 -2.301,-9.2 1.073,-12.8c3.462,-3.692 8.921,-4.335 13.013,-1.713c0.973,0.624 1.714,1.022 2.637,0.035c0.643,-0.686 2.414,-2.574 3.434,-3.663c0.202,-0.215 0.305,-0.504 0.287,-0.798c-0.019,-0.294 -0.159,-0.567 -0.386,-0.755c-7.267,-6.008 -18.093,-5.428 -24.658,1.577c-6.477,6.911 -6.445,17.555 -0.234,24.43c0.261,0.289 0.632,0.456 1.022,0.459c0.39,0.005 0.764,-0.155 1.031,-0.439c1.011,-1.079 2.495,-2.663 2.965,-3.165c0.737,-0.785 0.887,-1.558 -0.184,-3.168" style="fill:#e63149;fill-rule:nonzero;"/><path d="M304.053,51.646c-0.868,-0.77 -0.569,-1.69 -0.037,-2.308l2.971,-3.501c0.596,-0.691 1.341,-0.745 2.031,-0.149l12.307,10.751c0.688,0.596 0.745,1.342 0.149,2.033l-3.229,3.742c-0.598,0.69 -1.341,0.745 -2.033,0.148c0,0 -11.744,-10.347 -12.159,-10.716" style="fill:#e63149;fill-rule:nonzero;"/><path d="M86.902,112.845l9.951,-5.209l1.664,3.179c0.165,0.316 0.45,0.554 0.791,0.661c0.34,0.105 0.709,0.072 1.025,-0.094l4.418,-2.316c0.705,-0.37 0.977,-1.242 0.608,-1.948l-4.554,-8.701c-0.423,-0.808 -1.136,-1.031 -1.944,-0.608l-15.565,8.147c-0.808,0.422 -1.031,1.134 -0.608,1.943l2.27,4.337c0.423,0.809 1.136,1.032 1.944,0.609" style="fill:#e63149;fill-rule:nonzero;"/><path d="M122.529,80.745c-0.411,0.827 -0.261,1.822 0.376,2.491l3.426,3.597c0.262,0.275 0.641,0.406 1.017,0.352c0.375,-0.054 0.702,-0.288 0.875,-0.626l3.848,-7.511c0.393,-0.771 0.272,-1.386 -0.291,-1.977l-3.673,-3.86c-0.728,-0.766 -1.478,-0.648 -1.975,0.291l-3.603,7.243Z" style="fill:#e63149;fill-rule:nonzero;"/><path d="M101.422,66.818c2.554,3.961 2.166,9.231 -1.261,12.782c-3.515,3.642 -8.982,4.205 -13.036,1.522c-0.965,-0.638 -1.699,-1.046 -2.637,-0.074c-0.653,0.677 -2.45,2.539 -3.486,3.613c-0.205,0.212 -0.313,0.499 -0.299,0.794c0.015,0.294 0.151,0.569 0.375,0.76c7.179,6.113 18.01,5.693 24.678,-1.215c6.577,-6.816 6.702,-17.458 0.592,-24.424c-0.257,-0.293 -0.625,-0.465 -1.015,-0.475c-0.389,-0.009 -0.766,0.144 -1.036,0.425c-1.028,1.064 -2.535,2.626 -3.013,3.121c-0.749,0.775 -0.91,1.545 0.138,3.171" style="fill:#e63149;fill-rule:nonzero;"/><path d="M111.522,92.142c-0.296,0.032 -0.566,0.181 -0.75,0.415c-0.185,0.233 -0.268,0.53 -0.231,0.825l0.647,5.223c0.093,0.757 0.756,1.315 1.518,1.275c0.218,-0.011 0.421,-0.016 0.571,-0.011c4.43,0.16 8.396,3.266 9.621,7.51c0.031,0.103 0.063,0.239 0.096,0.39c0.157,0.726 0.843,1.207 1.579,1.109l4.92,-0.657c0.377,-0.05 0.716,-0.254 0.937,-0.562c0.222,-0.309 0.307,-0.695 0.235,-1.068c-0.002,-0.006 -0.003,-0.012 -0.004,-0.018c-1.788,-8.943 -9.985,-15.155 -19.097,-14.435c-0.013,0.001 -0.027,0.002 -0.042,0.004" style="fill:#e63149;fill-rule:nonzero;"/><path d="M149.234,101.543c0.28,-0.227 0.458,-0.556 0.494,-0.915c0.036,-0.359 -0.073,-0.717 -0.302,-0.995l-2.926,-3.545l4.742,-0.113c0.696,-0.017 1.247,-0.593 1.231,-1.289l-0.096,-4.274c-0.007,-0.338 -0.149,-0.658 -0.394,-0.891c-0.244,-0.232 -0.571,-0.358 -0.908,-0.348l-12.82,0.354c-0.643,0.022 -1.085,0.296 -1.364,0.907l-0.937,2.052c-0.279,0.612 -0.196,1.124 0.207,1.626l7.95,9.701c0.512,0.624 1.432,0.718 2.059,0.21l3.064,-2.48Z" style="fill:#e63149;fill-rule:nonzero;"/><path d="M68.227,76.457c-1.124,0.284 -1.717,-0.481 -1.929,-1.267l-1.226,-4.426c-0.236,-0.88 0.137,-1.527 1.018,-1.764l15.81,-4.134c0.879,-0.236 1.528,0.137 1.764,1.018l1.281,4.775c0.234,0.881 -0.138,1.527 -1.019,1.764c0,0 -15.16,3.898 -15.699,4.034" style="fill:#e63149;fill-rule:nonzero;"/><path d="M161.799,112.845l9.951,-5.209l1.664,3.179c0.166,0.316 0.45,0.554 0.791,0.661c0.341,0.105 0.71,0.072 1.026,-0.094l4.417,-2.316c0.705,-0.37 0.977,-1.242 0.608,-1.947l-4.554,-8.703c-0.423,-0.807 -1.136,-1.03 -1.944,-0.607l-15.565,8.146c-0.808,0.422 -1.031,1.135 -0.608,1.944l2.27,4.337c0.423,0.809 1.136,1.032 1.944,0.609" style="fill:#e63149;fill-rule:nonzero;"/><path d="M197.427,80.744c-0.411,0.827 -0.261,1.822 0.376,2.491l3.426,3.597c0.262,0.275 0.641,0.406 1.017,0.352c0.376,-0.055 0.702,-0.288 0.874,-0.626l3.849,-7.511c0.393,-0.771 0.272,-1.385 -0.291,-1.977l-3.673,-3.86c-0.728,-0.766 -1.477,-0.648 -1.975,0.291l-3.603,7.243Z" style="fill:#e63149;fill-rule:nonzero;"/><path d="M176.319,66.818c2.554,3.961 2.166,9.231 -1.261,12.783c-3.515,3.641 -8.982,4.204 -13.036,1.521c-0.965,-0.638 -1.699,-1.046 -2.638,-0.074c-0.652,0.677 -2.45,2.539 -3.486,3.613c-0.205,0.212 -0.313,0.5 -0.298,0.794c0.015,0.294 0.15,0.57 0.375,0.761c7.178,6.113 18.01,5.692 24.679,-1.216c6.577,-6.816 6.701,-17.458 0.591,-24.424c-0.257,-0.293 -0.625,-0.465 -1.015,-0.475c-0.39,-0.009 -0.766,0.144 -1.037,0.425c-1.027,1.064 -2.534,2.626 -3.012,3.121c-0.749,0.775 -0.91,1.545 0.138,3.171" style="fill:#e63149;fill-rule:nonzero;"/><path d="M186.419,92.143c-0.296,0.032 -0.567,0.181 -0.751,0.415c-0.185,0.233 -0.268,0.53 -0.232,0.825l0.647,5.223c0.094,0.757 0.756,1.314 1.518,1.275c0.219,-0.011 0.423,-0.016 0.573,-0.01c4.43,0.159 8.395,3.264 9.621,7.509c0.03,0.103 0.063,0.239 0.095,0.39c0.157,0.726 0.843,1.207 1.58,1.109l4.919,-0.657c0.377,-0.05 0.716,-0.254 0.938,-0.563c0.222,-0.309 0.306,-0.695 0.233,-1.068c-0.001,-0.006 -0.002,-0.012 -0.003,-0.018c-1.788,-8.943 -9.985,-15.154 -19.096,-14.434c-0.013,0.001 -0.027,0.002 -0.042,0.004" style="fill:#e63149;fill-rule:nonzero;"/><path d="M224.131,101.543c0.28,-0.227 0.458,-0.556 0.494,-0.915c0.036,-0.359 -0.073,-0.717 -0.302,-0.995l-2.926,-3.545l4.742,-0.113c0.696,-0.017 1.246,-0.593 1.231,-1.289l-0.096,-4.274c-0.007,-0.337 -0.149,-0.658 -0.393,-0.89c-0.245,-0.233 -0.572,-0.358 -0.909,-0.349l-12.82,0.354c-0.643,0.023 -1.085,0.296 -1.364,0.907l-0.937,2.052c-0.279,0.612 -0.196,1.124 0.207,1.626l7.95,9.701c0.512,0.624 1.432,0.718 2.059,0.21l3.064,-2.48Z" style="fill:#e63149;fill-rule:nonzero;"/><path d="M143.125,76.457c-1.124,0.284 -1.717,-0.481 -1.929,-1.267l-1.226,-4.426c-0.236,-0.88 0.137,-1.527 1.018,-1.764l15.809,-4.134c0.88,-0.236 1.529,0.137 1.765,1.018l1.281,4.775c0.234,0.881 -0.138,1.527 -1.02,1.764c0,0 -15.159,3.898 -15.698,4.034" style="fill:#e63149;fill-rule:nonzero;"/><path d="M236.696,112.845l9.951,-5.209l1.664,3.179c0.165,0.316 0.45,0.554 0.791,0.661c0.34,0.105 0.709,0.072 1.025,-0.094l4.417,-2.316c0.706,-0.37 0.978,-1.242 0.608,-1.947l-4.553,-8.702c-0.423,-0.808 -1.136,-1.031 -1.944,-0.608l-15.565,8.147c-0.808,0.422 -1.031,1.134 -0.608,1.943l2.271,4.337c0.422,0.809 1.135,1.032 1.943,0.609" style="fill:#e63149;fill-rule:nonzero;"/><path d="M272.324,80.745c-0.411,0.827 -0.261,1.822 0.376,2.491l3.426,3.597c0.262,0.275 0.641,0.406 1.017,0.352c0.375,-0.055 0.702,-0.288 0.874,-0.626l3.849,-7.511c0.393,-0.771 0.272,-1.386 -0.291,-1.977l-3.673,-3.86c-0.728,-0.766 -1.478,-0.648 -1.976,0.291l-3.602,7.243Z" style="fill:#e63149;fill-rule:nonzero;"/><path d="M251.217,66.818c2.554,3.961 2.166,9.231 -1.261,12.783c-3.515,3.641 -8.982,4.204 -13.037,1.522c-0.964,-0.639 -1.698,-1.047 -2.637,-0.074c-0.652,0.676 -2.45,2.538 -3.486,3.612c-0.205,0.212 -0.313,0.5 -0.298,0.794c0.014,0.294 0.15,0.57 0.374,0.761c7.18,6.113 18.011,5.692 24.68,-1.216c6.577,-6.816 6.702,-17.458 0.591,-24.424c-0.257,-0.293 -0.625,-0.465 -1.015,-0.475c-0.39,-0.009 -0.766,0.144 -1.037,0.425c-1.027,1.064 -2.534,2.626 -3.012,3.121c-0.749,0.775 -0.91,1.545 0.138,3.171" style="fill:#e63149;fill-rule:nonzero;"/><path d="M261.316,92.142c-0.295,0.032 -0.566,0.182 -0.75,0.415c-0.184,0.233 -0.268,0.53 -0.231,0.825l0.647,5.223c0.094,0.757 0.756,1.315 1.518,1.275c0.219,-0.011 0.422,-0.016 0.572,-0.011c4.43,0.16 8.396,3.266 9.621,7.51c0.031,0.103 0.063,0.24 0.096,0.391c0.156,0.725 0.843,1.207 1.579,1.108l4.918,-0.656c0.377,-0.051 0.716,-0.255 0.938,-0.563c0.222,-0.308 0.307,-0.695 0.235,-1.068c-0.001,-0.006 -0.002,-0.012 -0.004,-0.018c-1.787,-8.943 -9.985,-15.155 -19.096,-14.435c-0.013,0.001 -0.028,0.002 -0.043,0.004" style="fill:#e63149;fill-rule:nonzero;"/><path d="M299.029,101.543c0.28,-0.227 0.458,-0.556 0.494,-0.915c0.036,-0.359 -0.073,-0.717 -0.302,-0.995l-2.926,-3.545l4.742,-0.113c0.696,-0.017 1.246,-0.593 1.23,-1.289l-0.095,-4.274c-0.007,-0.337 -0.149,-0.658 -0.394,-0.89c-0.244,-0.233 -0.571,-0.358 -0.908,-0.349l-12.82,0.354c-0.643,0.023 -1.085,0.296 -1.364,0.907l-0.937,2.052c-0.279,0.612 -0.196,1.124 0.207,1.626l7.95,9.701c0.512,0.624 1.432,0.718 2.059,0.21l3.064,-2.48Z" style="fill:#e63149;fill-rule:nonzero;"/><path d="M218.022,76.457c-1.124,0.284 -1.718,-0.481 -1.93,-1.267l-1.225,-4.426c-0.236,-0.88 0.137,-1.527 1.017,-1.764l15.81,-4.134c0.88,-0.236 1.529,0.137 1.765,1.018l1.28,4.775c0.234,0.881 -0.137,1.527 -1.019,1.764c0,0 -15.159,3.898 -15.698,4.034" style="fill:#e63149;fill-rule:nonzero;"/><path d="M311.594,112.845l9.951,-5.209l1.664,3.179c0.166,0.316 0.45,0.554 0.791,0.661c0.341,0.105 0.71,0.072 1.026,-0.094l4.417,-2.316c0.705,-0.37 0.977,-1.242 0.608,-1.947l-4.554,-8.703c-0.423,-0.807 -1.136,-1.03 -1.944,-0.607l-15.565,8.146c-0.808,0.422 -1.031,1.135 -0.608,1.944l2.27,4.337c0.423,0.809 1.136,1.032 1.944,0.609" style="fill:#e63149;fill-rule:nonzero;"/><path d="M326.114,66.818c2.554,3.961 2.166,9.231 -1.261,12.782c-3.515,3.642 -8.982,4.205 -13.036,1.522c-0.965,-0.638 -1.699,-1.046 -2.638,-0.073c-0.652,0.676 -2.45,2.538 -3.486,3.612c-0.204,0.212 -0.312,0.499 -0.298,0.794c0.015,0.294 0.15,0.569 0.375,0.76c7.179,6.114 18.01,5.693 24.678,-1.215c6.578,-6.816 6.703,-17.458 0.592,-24.424c-0.257,-0.293 -0.625,-0.465 -1.015,-0.475c-0.39,-0.009 -0.766,0.144 -1.037,0.425c-1.027,1.064 -2.534,2.626 -3.012,3.121c-0.749,0.775 -0.91,1.545 0.138,3.171" style="fill:#e63149;fill-rule:nonzero;"/><path d="M336.214,92.142c-0.296,0.032 -0.566,0.181 -0.751,0.415c-0.185,0.232 -0.268,0.53 -0.232,0.825l0.647,5.223c0.094,0.757 0.756,1.315 1.519,1.276c0.218,-0.011 0.422,-0.017 0.572,-0.011c4.43,0.158 8.395,3.264 9.621,7.509c0.03,0.103 0.063,0.24 0.095,0.391c0.157,0.726 0.843,1.207 1.58,1.108l4.919,-0.657c0.377,-0.05 0.716,-0.253 0.938,-0.562c0.222,-0.309 0.306,-0.695 0.233,-1.068c-0.001,-0.007 -0.002,-0.013 -0.003,-0.018c-1.788,-8.943 -9.985,-15.155 -19.096,-14.435c-0.013,0.001 -0.027,0.002 -0.042,0.004" style="fill:#e63149;fill-rule:nonzero;"/><path d="M292.92,76.457c-1.124,0.284 -1.718,-0.481 -1.93,-1.267l-1.225,-4.426c-0.236,-0.88 0.137,-1.527 1.017,-1.764l15.81,-4.134c0.88,-0.236 1.529,0.137 1.765,1.018l1.28,4.775c0.234,0.881 -0.137,1.527 -1.018,1.764c0,0 -15.16,3.898 -15.699,4.034" style="fill:#e63149;fill-rule:nonzero;"/></g></g><g><clipPath id="_clip2"><path d="M341.504,0l0,7l20.393,17.661l8.368,3.839l12.553,-8.5l15.69,8.5l14.644,-8.5l6.969,4.661l5.583,7.339l9.415,-3.5l35.565,-3.839l2.152,1.58l10.164,-9.741l5.441,5.214l3.163,-1.714l10.984,8.716l13.92,1.313l4.385,-1.529l17.783,-3.839l11.506,0l1.104,2.237l3.714,-6.898l14,-12.445l0,-7.555l-227.496,0Z" clip-rule="nonzero"/></clipPath><g clip-path="url(#_clip2)"><path d="M373.051,21.918c0.895,-0.225 1.554,-0.985 1.649,-1.904l0.508,-4.942c0.039,-0.378 -0.108,-0.751 -0.393,-1.001c-0.286,-0.25 -0.675,-0.347 -1.045,-0.259l-8.209,1.956c-0.841,0.202 -1.23,0.694 -1.314,1.506l-0.547,5.299c-0.11,1.051 0.467,1.545 1.505,1.314l7.846,-1.969Z" style="fill:#e63149;fill-rule:nonzero;"/><path d="M352.175,20.845c-2.612,-3.924 -2.301,-9.2 1.073,-12.8c3.462,-3.693 8.921,-4.336 13.013,-1.713c0.974,0.624 1.714,1.022 2.638,0.035c0.643,-0.686 2.413,-2.574 3.433,-3.663c0.202,-0.215 0.305,-0.504 0.287,-0.798c-0.019,-0.294 -0.159,-0.567 -0.386,-0.755c-7.267,-6.008 -18.093,-5.428 -24.658,1.577c-6.477,6.911 -6.446,17.555 -0.234,24.43c0.261,0.289 0.632,0.456 1.022,0.459c0.39,0.005 0.764,-0.155 1.031,-0.439c1.011,-1.079 2.495,-2.663 2.965,-3.165c0.737,-0.785 0.887,-1.558 -0.184,-3.168" style="fill:#e63149;fill-rule:nonzero;"/><path d="M401.144,-1.69c-0.543,0.52 -0.577,1.374 -0.079,1.937c1.545,1.747 2.517,3.994 2.633,6.381c0.005,0.107 0.005,0.247 0.001,0.402c-0.016,0.743 0.542,1.37 1.281,1.445l4.937,0.496c0.378,0.038 0.754,-0.082 1.041,-0.331c0.288,-0.249 0.461,-0.605 0.477,-0.985c-0.001,-0.006 0,-0.012 0.001,-0.018c0.172,-4.85 -1.599,-9.364 -4.656,-12.74c-0.253,-0.28 -0.608,-0.445 -0.986,-0.458c-0.376,-0.014 -0.744,0.126 -1.016,0.387l-3.634,3.484Z" style="fill:#e63149;fill-rule:nonzero;"/><path d="M447.948,21.918c0.895,-0.225 1.554,-0.985 1.649,-1.904l0.508,-4.942c0.039,-0.377 -0.108,-0.751 -0.393,-1.001c-0.286,-0.25 -0.675,-0.347 -1.044,-0.259l-8.21,1.956c-0.841,0.203 -1.23,0.694 -1.313,1.506l-0.548,5.299c-0.109,1.051 0.467,1.545 1.505,1.314l7.846,-1.969Z" style="fill:#e63149;fill-rule:nonzero;"/><path d="M427.073,20.845c-2.612,-3.924 -2.301,-9.2 1.073,-12.8c3.462,-3.692 8.92,-4.335 13.013,-1.713c0.973,0.624 1.713,1.022 2.637,0.036c0.643,-0.687 2.413,-2.575 3.434,-3.664c0.202,-0.215 0.305,-0.504 0.286,-0.798c-0.019,-0.294 -0.158,-0.567 -0.385,-0.755c-7.267,-6.007 -18.093,-5.428 -24.658,1.577c-6.477,6.911 -6.445,17.555 -0.234,24.43c0.261,0.289 0.632,0.456 1.022,0.459c0.39,0.005 0.764,-0.155 1.031,-0.439c1.011,-1.079 2.495,-2.663 2.965,-3.165c0.737,-0.785 0.887,-1.558 -0.184,-3.168" style="fill:#e63149;fill-rule:nonzero;"/><path d="M385.124,13.379c-0.867,-0.77 -0.568,-1.69 -0.037,-2.308l2.972,-3.501c0.595,-0.691 1.34,-0.745 2.03,-0.149l12.307,10.751c0.688,0.596 0.745,1.342 0.15,2.033l-3.23,3.742c-0.597,0.69 -1.341,0.745 -2.032,0.148c0,0 -11.745,-10.347 -12.16,-10.716" style="fill:#e63149;fill-rule:nonzero;"/><path d="M476.039,-1.69c-0.542,0.52 -0.577,1.374 -0.079,1.937c1.545,1.747 2.517,3.993 2.633,6.381c0.004,0.107 0.005,0.248 0.002,0.402c-0.016,0.743 0.541,1.371 1.28,1.445l4.938,0.496c0.378,0.038 0.754,-0.081 1.041,-0.331c0.288,-0.249 0.461,-0.604 0.476,-0.985c0,-0.006 0,-0.012 0.001,-0.018c0.172,-4.85 -1.599,-9.364 -4.655,-12.739c-0.253,-0.28 -0.609,-0.446 -0.986,-0.459c-0.377,-0.014 -0.744,0.126 -1.017,0.387l-3.634,3.484Z" style="fill:#e63149;fill-rule:nonzero;"/><path d="M522.846,21.918c0.896,-0.225 1.554,-0.985 1.649,-1.904l0.508,-4.942c0.039,-0.377 -0.108,-0.751 -0.393,-1.001c-0.286,-0.25 -0.675,-0.347 -1.044,-0.259l-8.21,1.956c-0.841,0.202 -1.23,0.694 -1.314,1.506l-0.547,5.299c-0.109,1.051 0.467,1.545 1.504,1.314l7.847,-1.969Z" style="fill:#e63149;fill-rule:nonzero;"/><path d="M501.97,20.845c-2.612,-3.924 -2.301,-9.2 1.073,-12.8c3.462,-3.692 8.921,-4.335 13.013,-1.713c0.973,0.624 1.714,1.022 2.637,0.035c0.643,-0.686 2.413,-2.574 3.434,-3.663c0.202,-0.215 0.305,-0.504 0.287,-0.798c-0.019,-0.294 -0.159,-0.567 -0.386,-0.755c-7.267,-6.008 -18.093,-5.428 -24.658,1.577c-6.477,6.911 -6.445,17.555 -0.234,24.43c0.261,0.289 0.632,0.456 1.022,0.459c0.39,0.005 0.764,-0.155 1.031,-0.439c1.011,-1.079 2.495,-2.663 2.965,-3.165c0.737,-0.785 0.887,-1.558 -0.184,-3.168" style="fill:#e63149;fill-rule:nonzero;"/><path d="M460.022,13.379c-0.867,-0.77 -0.569,-1.69 -0.037,-2.308l2.972,-3.501c0.595,-0.691 1.34,-0.745 2.03,-0.149l12.307,10.751c0.688,0.596 0.745,1.342 0.149,2.033l-3.229,3.742c-0.597,0.69 -1.341,0.745 -2.032,0.148c0,0 -11.745,-10.347 -12.16,-10.716" style="fill:#e63149;fill-rule:nonzero;"/><path d="M550.938,-1.69c-0.543,0.52 -0.577,1.374 -0.079,1.937c1.545,1.747 2.517,3.994 2.633,6.381c0.004,0.107 0.005,0.248 0.001,0.402c-0.016,0.743 0.541,1.371 1.281,1.445l4.937,0.496c0.378,0.039 0.754,-0.081 1.042,-0.331c0.287,-0.249 0.46,-0.605 0.476,-0.985c-0.001,-0.006 0,-0.013 0.001,-0.018c0.172,-4.85 -1.599,-9.364 -4.655,-12.739c-0.253,-0.28 -0.609,-0.446 -0.986,-0.459c-0.377,-0.013 -0.744,0.126 -1.017,0.387l-3.634,3.484Z" style="fill:#e63149;fill-rule:nonzero;"/><path d="M576.868,20.845c-2.612,-3.924 -2.301,-9.2 1.073,-12.8c3.462,-3.692 8.921,-4.335 13.013,-1.713c0.973,0.624 1.714,1.022 2.637,0.035c0.643,-0.686 2.414,-2.574 3.434,-3.663c0.202,-0.215 0.305,-0.504 0.287,-0.798c-0.019,-0.294 -0.159,-0.567 -0.386,-0.755c-7.267,-6.008 -18.093,-5.428 -24.658,1.577c-6.477,6.911 -6.445,17.555 -0.234,24.43c0.261,0.289 0.632,0.456 1.022,0.459c0.39,0.005 0.764,-0.155 1.031,-0.439c1.011,-1.079 2.495,-2.663 2.965,-3.165c0.737,-0.785 0.887,-1.558 -0.184,-3.168" style="fill:#e63149;fill-rule:nonzero;"/><path d="M534.919,13.379c-0.868,-0.77 -0.568,-1.69 -0.037,-2.308l2.971,-3.501c0.596,-0.691 1.341,-0.745 2.031,-0.149l12.307,10.751c0.688,0.596 0.745,1.342 0.149,2.033l-3.229,3.742c-0.598,0.69 -1.341,0.745 -2.033,0.148c0,0 -11.744,-10.347 -12.159,-10.716" style="fill:#e63149;fill-rule:nonzero;"/><path d="M332.288,28.55c2.554,3.961 2.166,9.231 -1.261,12.782c-3.515,3.642 -8.982,4.205 -13.036,1.522c-0.965,-0.638 -1.699,-1.046 -2.637,-0.074c-0.653,0.677 -2.45,2.539 -3.486,3.613c-0.205,0.212 -0.313,0.499 -0.299,0.794c0.015,0.294 0.151,0.569 0.375,0.76c7.179,6.113 18.01,5.693 24.678,-1.215c6.577,-6.816 6.702,-17.458 0.592,-24.424c-0.257,-0.293 -0.625,-0.465 -1.015,-0.475c-0.389,-0.009 -0.766,0.144 -1.036,0.425c-1.028,1.064 -2.535,2.626 -3.013,3.121c-0.749,0.775 -0.91,1.545 0.138,3.171" style="fill:#e63149;fill-rule:nonzero;"/><path d="M407.186,28.55c2.554,3.961 2.166,9.231 -1.261,12.783c-3.515,3.641 -8.982,4.204 -13.036,1.521c-0.965,-0.638 -1.699,-1.046 -2.638,-0.074c-0.652,0.677 -2.449,2.539 -3.486,3.613c-0.205,0.212 -0.313,0.5 -0.298,0.794c0.015,0.294 0.15,0.57 0.375,0.761c7.178,6.113 18.01,5.692 24.679,-1.216c6.577,-6.816 6.701,-17.458 0.591,-24.424c-0.257,-0.293 -0.625,-0.465 -1.015,-0.475c-0.39,-0.009 -0.766,0.144 -1.037,0.425c-1.027,1.064 -2.534,2.626 -3.012,3.121c-0.749,0.775 -0.91,1.545 0.138,3.171" style="fill:#e63149;fill-rule:nonzero;"/><path d="M373.991,38.19c-1.124,0.284 -1.717,-0.481 -1.929,-1.267l-1.226,-4.426c-0.236,-0.88 0.137,-1.527 1.018,-1.764l15.809,-4.134c0.88,-0.236 1.529,0.137 1.765,1.018l1.281,4.775c0.234,0.881 -0.138,1.527 -1.02,1.764c0,0 -15.159,3.898 -15.698,4.034" style="fill:#e63149;fill-rule:nonzero;"/><path d="M482.083,28.55c2.554,3.961 2.166,9.231 -1.261,12.783c-3.515,3.641 -8.982,4.204 -13.037,1.522c-0.964,-0.639 -1.698,-1.047 -2.637,-0.074c-0.652,0.676 -2.45,2.538 -3.486,3.612c-0.205,0.212 -0.313,0.5 -0.298,0.794c0.014,0.294 0.15,0.57 0.374,0.761c7.18,6.113 18.011,5.692 24.68,-1.216c6.577,-6.816 6.702,-17.458 0.591,-24.424c-0.257,-0.293 -0.625,-0.465 -1.015,-0.475c-0.39,-0.009 -0.766,0.144 -1.037,0.425c-1.027,1.064 -2.534,2.626 -3.012,3.121c-0.749,0.775 -0.91,1.545 0.138,3.171" style="fill:#e63149;fill-rule:nonzero;"/><path d="M448.888,38.19c-1.124,0.284 -1.718,-0.481 -1.93,-1.267l-1.225,-4.426c-0.236,-0.88 0.137,-1.527 1.017,-1.764l15.81,-4.134c0.88,-0.236 1.529,0.137 1.765,1.018l1.28,4.775c0.234,0.881 -0.137,1.527 -1.019,1.764c0,0 -15.159,3.898 -15.698,4.034" style="fill:#e63149;fill-rule:nonzero;"/><path d="M556.981,28.55c2.554,3.961 2.166,9.231 -1.261,12.782c-3.515,3.642 -8.982,4.205 -13.036,1.522c-0.965,-0.638 -1.699,-1.046 -2.638,-0.073c-0.652,0.676 -2.45,2.538 -3.485,3.612c-0.205,0.212 -0.313,0.499 -0.299,0.794c0.015,0.294 0.15,0.569 0.375,0.76c7.179,6.114 18.01,5.693 24.678,-1.215c6.578,-6.816 6.703,-17.458 0.592,-24.424c-0.257,-0.293 -0.625,-0.465 -1.015,-0.475c-0.39,-0.009 -0.766,0.144 -1.037,0.425c-1.027,1.064 -2.534,2.626 -3.012,3.121c-0.749,0.775 -0.91,1.545 0.138,3.171" style="fill:#e63149;fill-rule:nonzero;"/><path d="M523.786,38.19c-1.124,0.284 -1.718,-0.481 -1.93,-1.267l-1.225,-4.426c-0.236,-0.88 0.137,-1.527 1.017,-1.764l15.81,-4.134c0.88,-0.236 1.529,0.137 1.765,1.018l1.28,4.775c0.234,0.881 -0.137,1.527 -1.018,1.764c0,0 -15.16,3.898 -15.699,4.034" style="fill:#e63149;fill-rule:nonzero;"/></g></g></svg>